<svg width="464" height="277" viewBox="0 0 464 277" fill="none" xmlns="http://www.w3.org/2000/svg">
<g id="DinoBot-Congratulate">
<path id="Star 25" d="M76.7473 196.655L66.283 222.618L38.3567 220.689L59.8157 238.665L49.3514 264.628L73.0781 249.774L94.537 267.749L87.742 240.594L111.469 225.74L83.5424 223.811L76.7473 196.655Z" fill="#FEE599"/>
<g id="tattoo">
<path id="Ellipse 67" d="M51.6451 64.8436C53.8134 78.9904 61.2868 91.781 72.5467 100.616C83.8065 109.45 98.0078 113.666 112.264 112.406C126.521 111.147 139.763 104.506 149.299 93.8335C158.835 83.1612 163.95 69.2583 163.604 54.9504C163.257 40.6425 157.476 27.0033 147.435 16.8047C137.394 6.60604 123.847 0.613338 109.546 0.0444963C95.2451 -0.524345 81.2643 4.37336 70.4448 13.7422C59.6254 23.1111 52.7792 36.248 51.2977 50.4832L76.5257 53.1088C77.34 45.2855 81.1025 38.0657 87.0486 32.9167C92.9947 27.7678 100.678 25.0761 108.538 25.3888C116.397 25.7014 123.843 28.9948 129.361 34.5998C134.879 40.2047 138.057 47.7006 138.247 55.5639C138.437 63.4272 135.626 71.068 130.385 76.9332C125.144 82.7985 117.867 86.4482 110.032 87.1405C102.197 87.8328 94.3919 85.5159 88.2038 80.6606C82.0156 75.8052 77.9083 68.7758 76.7167 61.001L51.6451 64.8436Z" fill="black"/>
<path id="Vector 33" d="M97.257 70.8852L85.8128 60.3709L10.709 50.7938L9.03442 60.87L20.0989 72.4824L93.4598 81.8667L97.257 70.8852Z" fill="black"/>
<path id="Vector 35" d="M26.7781 97.6467L30.7015 102.41L59.7116 110.3L60.9233 106.429L57.2096 101.255L28.8744 93.5365L26.7781 97.6467Z" fill="black"/>
<path id="Vector 36" d="M119.702 199.384L123.625 204.147L152.635 212.037L153.847 208.166L150.133 202.992L121.798 195.274L119.702 199.384Z" fill="black"/>
<path id="Vector 34" d="M159.239 227.529L177.917 227.216L99.965 198.857L53.7753 131.498L53.032 119.972L72.4521 131.184L85.5782 127.667L88.1954 119.93L45.7245 110.205L43.8507 129.468L96.1752 202.217L159.239 227.529Z" fill="black"/>
<circle id="Ellipse 69" cx="10.8439" cy="10.8439" r="10.8439" transform="matrix(-1 0 0 1 178.352 211.998)" fill="black"/>
<path id="Ellipse 68" d="M172.666 249.72C166.407 250.893 159.935 249.859 154.353 246.795C148.771 243.731 144.424 238.827 142.053 232.917C139.682 227.007 139.433 220.458 141.349 214.386C143.265 208.313 147.228 203.093 152.561 199.614C157.895 196.136 164.27 194.614 170.599 195.309C176.929 196.003 182.822 198.871 187.274 203.424C191.726 207.976 194.462 213.931 195.016 220.275C195.57 226.618 193.906 232.958 190.31 238.212L181.418 232.127C183.607 228.929 184.619 225.072 184.282 221.212C183.945 217.351 182.28 213.727 179.571 210.957C176.862 208.187 173.276 206.442 169.424 206.019C165.572 205.596 161.693 206.522 158.447 208.639C155.202 210.756 152.791 213.933 151.625 217.628C150.459 221.323 150.61 225.308 152.053 228.905C153.496 232.501 156.141 235.485 159.538 237.35C162.935 239.214 166.873 239.843 170.682 239.13L172.666 249.72Z" fill="black"/>
</g>
<g id="head" filter="url(#filter0_d_2106_1198)">
<g id="TREX">
<path id="head_2" d="M246.447 103.874L243.836 87.2673C243.07 82.3956 239.614 78.3767 234.912 76.8904L190.224 62.7658C186.941 61.7282 184.354 59.181 183.265 55.9147C181.583 50.872 176.469 47.8148 171.232 48.7211L158.322 50.9548L104.949 59.6658C99.6101 60.5373 95.3686 64.6242 94.2997 69.9275L85.3836 114.163C84.8999 116.563 85.1037 119.051 85.9717 121.341L102.012 163.646C103.589 167.806 107.185 170.871 111.542 171.769L175.838 185.028C185.872 187.097 191.204 178.874 183.007 172.727C180.093 170.542 177.571 168.855 176.247 167.995C175.6 167.574 175.088 166.989 174.766 166.288C173.279 163.045 176.539 159.66 179.835 161.024L192.841 166.404C194.361 167.033 196.02 167.254 197.652 167.046L228.524 163.106C232.441 162.606 235.696 159.847 236.83 156.066L237.21 154.801C237.404 154.154 237.446 153.471 237.332 152.806L236.239 146.435C235.849 144.16 232.758 143.748 231.785 145.841C230.983 147.566 228.572 147.676 227.616 146.031L226.499 144.108C225.16 141.805 221.845 141.771 220.46 144.046L219.559 145.526C218.424 147.39 216.125 148.184 214.082 147.418L207.278 144.867C205.4 144.163 203.285 144.874 202.214 146.569L201.77 147.272C200.413 149.421 197.33 149.561 195.784 147.544L192.393 143.123C191.369 141.787 189.233 142.512 189.233 144.196C189.233 145.804 187.254 146.572 186.169 145.384L182.46 141.323C181.709 140.501 180.341 141.032 180.341 142.145C180.341 142.987 179.508 143.575 178.714 143.294L143.882 130.956C143.629 130.866 143.384 130.755 143.15 130.623C138.232 127.863 141.454 120.364 146.841 122.031L169.665 129.09C172.818 130.066 176.19 128.442 177.394 125.368L177.975 123.882C179.176 120.814 182.942 119.695 185.624 121.609L186.258 122.062C187.96 123.278 190.3 123.043 191.728 121.514L192.701 120.472C193.979 119.103 196.186 119.234 197.293 120.744L197.383 120.866C198.566 122.479 200.994 122.425 202.104 120.76C203.112 119.248 205.253 119.036 206.538 120.321L207.641 121.424C209.195 122.977 211.688 123.055 213.335 121.602L214.448 120.62C216.205 119.07 218.876 119.2 220.475 120.913L220.584 121.029C222.195 122.755 224.916 122.802 226.586 121.133L227.164 120.555C228.615 119.105 231.004 119.237 232.286 120.839C233.661 122.558 236.273 122.562 237.654 120.848L244.021 112.947C246.074 110.4 246.954 107.105 246.447 103.874Z" fill="#FCBF00"/>
<ellipse id="eye" cx="10.704" cy="9.81199" rx="10.704" ry="9.81199" transform="matrix(-1 0 0 1 139.884 80.6344)" fill="url(#paint0_radial_2106_1198)"/>
</g>
<path id="sunglass" d="M114.75 114.434L152.914 103.386V78.2787L202.126 68.2355L227.233 74.5962L217.19 48.1493L104.707 74.5962L114.75 114.434Z" fill="#FEE599"/>
<g id="tattoo_2" opacity="0.99">
<path id="Vector 35_2" d="M71.8192 97.8932L73.071 100.643L85.79 108.05L86.8535 106.373L85.753 103.455L73.3313 96.2152L71.8192 97.8932Z" fill="#FEE599"/>
<path id="Vector 36_2" d="M101.827 153.472L103.079 156.222L115.798 163.629L116.861 161.952L115.761 159.034L103.339 151.794L101.827 153.472Z" fill="#FEE599"/>
<path id="Vector 37" d="M94.5664 130.826L90.5 128.289L101.177 152.779L102.286 151.408L94.5664 130.826Z" fill="#FEE599"/>
<path id="Vector 34_2" d="M110.685 165.659L119.557 167.878L93.6047 155.029L80.2968 117.322L81.4058 111.777L89.1689 119.54L95.8218 119.54L98.0399 116.213L79.1878 106.232L75.8608 115.104L91.3867 156.138L110.685 165.659Z" fill="#FEE599"/>
<circle id="Ellipse 69_2" cx="5.30897" cy="5.30897" r="5.30897" transform="matrix(-0.965926 -0.258819 -0.258819 0.965926 124.499 159.596)" fill="#FEE599"/>
<circle id="Ellipse 70" cx="2.55315" cy="2.55315" r="2.55315" transform="matrix(-0.965926 -0.258819 -0.258819 0.965926 128.503 167.336)" fill="#FEE599"/>
</g>
</g>
<g id="Text box">
<path id="Rectangle 269" d="M316.135 179L448.251 181.871H464.001V229.871L239.692 229.871V179H285.923L277.943 153.5L316.135 179Z" fill="#FDCC33"/>
<text id="Congratulations" fill="black" xml:space="preserve" style="white-space: pre" font-family="Roboto" font-size="24" font-weight="500" letter-spacing="0em"><tspan x="263.348" y="212.074">Congratulations</tspan></text>
</g>
<path id="Star 24" d="M32.7596 156.537L25.896 169.345L11.5942 166.775L21.6541 177.26L14.7905 190.068L27.8714 183.741L37.9313 194.226L35.9559 179.83L49.0368 173.503L34.735 170.933L32.7596 156.537Z" fill="#FEE599"/>
<path id="Star 26" d="M12.5652 105.012L11.1344 114.145L2.00557 115.607L10.2501 119.79L8.81923 128.924L15.3454 122.376L23.5899 126.559L19.3788 118.329L25.905 111.78L16.7763 113.242L12.5652 105.012Z" fill="#FEE599"/>
</g>
<defs>
<filter id="filter0_d_2106_1198" x="71.8193" y="48.1493" width="186.968" height="150.405" filterUnits="userSpaceOnUse" color-interpolation-filters="sRGB">
<feFlood flood-opacity="0" result="BackgroundImageFix"/>
<feColorMatrix in="SourceAlpha" type="matrix" values="0 0 0 0 0 0 0 0 0 0 0 0 0 0 0 0 0 0 127 0" result="hardAlpha"/>
<feOffset dx="7" dy="8"/>
<feGaussianBlur stdDeviation="2.6"/>
<feComposite in2="hardAlpha" operator="out"/>
<feColorMatrix type="matrix" values="0 0 0 0 0 0 0 0 0 0 0 0 0 0 0 0 0 0 0.25 0"/>
<feBlend mode="normal" in2="BackgroundImageFix" result="effect1_dropShadow_2106_1198"/>
<feBlend mode="normal" in="SourceGraphic" in2="effect1_dropShadow_2106_1198" result="shape"/>
</filter>
<radialGradient id="paint0_radial_2106_1198" cx="0" cy="0" r="1" gradientUnits="userSpaceOnUse" gradientTransform="translate(10.704 9.81199) rotate(90) scale(9.81199 2.60921)">
<stop offset="0.576923" stop-color="white"/>
<stop offset="0.663462" stop-color="#FDCC33"/>
</radialGradient>
</defs>
</svg>
