<svg width="2400" height="1347" viewBox="0 0 2400 1347" fill="none" xmlns="http://www.w3.org/2000/svg">
<g clip-path="url(#clip0_61787_3748)">
<path d="M2400 0H0V1347H2400V0Z" fill="#AAD3DF"/>
<path fill-rule="evenodd" clip-rule="evenodd" d="M496.5 0L497 -0.5H518L521 2.5H522L524 4.5H525L527.5 7V8L528.5 9V11L529.5 12V14L530.5 15V17L531.5 18V21L532.5 22V25L533.5 26V30L534.5 31V35L534 35.5H532L531 34.5H529L528 33.5H526L525 32.5H524L513 21.5H503L502 20.5H499L498.5 20L500.5 18V17L504.5 12V10L496.5 2V0ZM573.5 0L574 -0.5H617L617.5 0L616.5 1V3L615.5 4V5L614.5 6V7L613.5 8V9L612.5 10V11L611.5 12V13L610.5 14V15L609.5 16V17L608.5 18V19L607.5 20L606.5 23L604 24.5H600L599 25.5H591L590 24.5H588L587 23.5H584L583 22.5H581L579.5 21V20L578.5 19V18L577.5 17V16L576.5 15V14L573.5 9V0ZM630.5 0L631 -0.5H691L692.5 1V3L693.5 4V6L694.5 7V9L695.5 10V13L696.5 14V17L695.5 18L694.5 21L692.5 23L691.5 26L684 33.5H683L680.5 36V37L679.5 38V41L678.5 42V45L677.5 46V48L667.5 58L668.5 59V64L669 64.5H673L674 63.5H680L680.5 64V70L663 87.5H662L659 85.5H657L656 84.5H655L650 81.5H648L645 79.5L644 80.5H640L639 81.5H636L635 82.5H631L630 83.5H627L626 84.5L625 83.5H623L622 82.5H620L619 81.5H617L616 80.5H610L609 79.5H604L602.5 78V65L605 63.5H606L607 62.5H608L609 61.5H610L612 59.5H613L614.5 58V56L613.5 55V49L612.5 48V42L611.5 41V36L614 34.5H616L618 36.5H619L622 39.5H623L627 43.5H628L631 46.5L632.5 46L631.5 45V43L630.5 42V41L629.5 40V39L626.5 34V32L625.5 31L624.5 28L623 26.5H622L620 24.5H619L618 23.5L615 22.5L613.5 21V20L614.5 19V17L616.5 14V12L617.5 11L618.5 8L620 7.5L623 4.5H624L626 2.5H627L629 0.5L630.5 0ZM740.5 0L741 -0.5H1070L1070.5 0L1069.5 1V4L1068.5 5V45L1069.5 46V48L1071.5 51V53L1073.5 56V58L1074.5 59V60L1075.5 61V63L1076.5 64L1076 64.5H1071L1070 65.5H1066L1063 68.5H1062L1055.5 75L1056.5 76V77L1060.5 81V82L1065.5 87V88L1067.5 90V99L1068.5 100V112L1065 114.5H1063L1062.5 115V118L1064.5 121V123L1066.5 126V128L1067.5 129V130L1068.5 131V133L1070.5 136L1068 137.5H1061L1060 138.5H1056L1055.5 139L1059.5 143V144L1062.5 147V148L1063.5 149L1062.5 150V153L1061.5 154V156L1060 157.5H1059L1058 158.5H1056L1055 159.5H1053L1052 160.5H1043L1042.5 161L1043.5 162V163L1044.5 164L1045.5 167L1047.5 169V170L1050.5 175V185L1050 185.5L1048 183.5H1047L1044 180.5H1043L1038 176.5L1036.5 178V179L1034.5 182L1037 184.5H1038L1040 186.5H1041L1043.5 188V189L1045.5 191V192L1047.5 194V195L1051.5 200V201L1052.5 202V207L1053.5 208V213L1054.5 214V217L1053 218.5H1051L1050 219.5H1048L1047 220.5H1045L1044 221.5H1043L1041.5 220V219L1039.5 217V216L1037.5 214V213L1035.5 211V210L1032.5 207V206L1030.5 204L1030 202.5L1029.5 203V206L1030.5 207V212L1031.5 213V216L1029.5 218V219L1027.5 221V222L1024.5 225V226L1025 226.5H1036L1037 227.5H1048L1049.5 229L1039 239.5H1038L1030 247.5H1029L1025 251.5H1024L1015 259.5H1014L1013 260.5H1010L1009 261.5H1007L1006 262.5H1004L1003 263.5H1001L1000 264.5H998L997 265.5H988L980.5 273V274L979.5 275V276L978.5 277V278L977.5 279V280L976.5 281V282L975.5 283L974.5 286L972.5 288L971.5 291L970 292.5H969L965 296.5H964L959 301.5H958L957 302.5H954L953 303.5H951L946 306.5H944L941 308.5H939L938 309.5L935 310.5L932.5 313V314L931.5 315L930.5 318L928.5 320V332L927.5 333V335L926.5 336V338L925.5 339V341L918.5 348V349L914.5 353V357L915.5 358V361L916.5 362V367L915.5 368V371L914.5 372V375L913.5 376V379L912.5 380V382L911.5 383V386L910.5 387V389L910 389.5H901L892.5 381V380L890 378.5H877L876.5 377L871.5 372V371L870.5 370V368L869.5 367V364L868.5 363V361L867.5 360V358L865.5 356L864.5 353L862.5 351V350L860.5 348V347L858.5 345L857.5 342L855.5 340V339L854.5 338V336L853.5 335V333L852.5 332V329L851.5 328V316L850.5 315V314L848.5 312L847.5 309L845.5 307L844.5 304L842.5 302V301L841.5 300L842.5 299V295L843.5 294V290L844.5 289V288L841.5 285V284L839.5 282L840.5 281V279L841.5 278V276L842.5 275V273L843.5 272V270L844.5 269V266L845.5 265V263L849 259.5H850L852 257.5H853L855 255.5H856L857.5 253V251L858.5 250V248L859.5 247V238L860.5 237V233L860 232.5L856 236.5H855L850 241.5H849L844 244.5H843L840 241.5H839L835.5 238V236L834.5 235V224L835.5 223V220L836.5 219V216L838 214.5H845L846 215.5H848L851 217.5H853L854 218.5L855.5 218L853.5 216V215L845.5 207V206L840.5 201L840 199.5H839L836 201.5H834L833 202.5L827.5 197V196L828.5 195V193L830.5 190V188L831.5 187V185L832.5 184V182L834.5 179V176L833.5 175V174L830.5 169V167L829.5 166V164L828.5 163V161L827.5 160V158L826.5 157V155L825.5 154V151L824.5 150V148L823.5 147V145L822.5 144V142L821.5 141V139L820.5 138V135L819.5 134V132L818.5 131V129L817.5 128L816.5 125L811.5 120V119L809.5 117V106L805 101.5H804L796 93.5H795L791 89.5H788L787 88.5H781L780 87.5H770L769 88.5H757L756 89.5H749L748 90.5H743L736.5 84V83L733.5 80L732.5 77L730.5 75V74L726.5 69L725.5 66L723.5 64L725 62.5H726L727 61.5H728L729 60.5H730L731 59.5H732L733 58.5L736 57.5L738 55.5H739L740 54.5H743L744 53.5H751L752.5 52L752 51.5H749L748 50.5H746L745 49.5H742L741 48.5H739L738 47.5H735L734 46.5H731L730 45.5H728L727 44.5H726L724 42.5H723L717 36.5H716L711.5 32V20L715 16.5L718 15.5L720 13.5H721L723 11.5H724L726 9.5H727L732 5.5H733L734 4.5H735L737 2.5H738L740.5 0ZM1273.5 0L1274 -0.5H1342L1342.5 0V2L1342 2.5H1341L1337 6.5H1336L1332 10.5H1331L1326.5 15V17L1325.5 18V23L1324.5 24V30L1323.5 31V36L1322.5 37V39L1316.5 45V51L1315.5 52V59L1314.5 60V67L1313 69.5H1311L1310 70.5H1306L1301.5 66V65L1298.5 62V61L1294.5 57V56L1291.5 53V52L1292.5 51V50L1293.5 49L1294.5 46L1296.5 44V43L1297.5 42L1286.5 31V30L1284.5 27V25L1283.5 24V23L1282.5 22V21L1281.5 20V19L1278.5 14V12L1277.5 11V10L1274.5 5V2L1273.5 1V0ZM1836.5 0L1837 -0.5H1866L1866.5 0L1865.5 1V4L1865 4.5H1862L1861 5.5H1859L1858 6.5H1855L1854 7.5H1850L1849 6.5H1848L1847 5.5H1846L1845 4.5L1842 3.5L1840 1.5H1839L1836.5 0ZM1872.5 0L1873 -0.5H1893L1899.5 6V7L1901.5 9V16L1900.5 17V22L1897 24.5H1895L1894 25.5H1892L1891 26.5H1889L1888 27.5H1886L1885 28.5H1883L1882 29.5H1880L1879 30.5H1877L1876 31.5H1874L1873 32.5H1871L1870 33.5H1868L1867 34.5H1865L1864 35.5H1863L1862.5 34L1863.5 33V31L1864.5 30V27L1865.5 26V24L1866.5 23V20L1867.5 19V16L1868.5 15V13L1869.5 12V9L1870.5 8V5L1871.5 4V2L1872.5 1V0ZM542.5 5L543 4.5H547L548 5.5H551L552 6.5H553L556.5 10V11L558.5 13V14L562.5 19V22L561.5 23V29L560.5 30V31L558 33.5H557L552 37.5H551L548.5 35V34L545.5 31V29L544.5 28V25L543.5 24V20L542.5 19V5ZM455.5 6L456 5.5H458L459 6.5H460L462 8.5H463L467 12.5L468.5 13L465 16.5H464L461 19.5H450L449.5 19V15L455.5 6ZM1350.5 19L1351 18.5L1352.5 19V22L1353.5 23V26L1354.5 27V30L1357 32.5H1358L1361 35.5H1362L1364.5 38L1363 39.5H1362L1356 45.5H1355L1350 50.5H1349L1347 48.5L1344 47.5L1342 45.5L1339 44.5L1337.5 43L1339.5 41V40L1342.5 35L1341.5 34V32L1339.5 29V27L1338.5 26V25L1350.5 19ZM455.5 29L456 28.5H459L460 29.5L463 30.5L465 32.5H466L467.5 34L466.5 35V38L465.5 39V42L463 44.5H462L460 46.5H459L456 49.5H455L453 51.5L442.5 41L444.5 39V38L445.5 37V36L446.5 35V34L448 31.5L455.5 29ZM556.5 39L557 38.5H570L571.5 40V41L574.5 44V47L573 48.5H565L564 47.5H559L558.5 47V45L557.5 44V40L556.5 39ZM1894.5 43L1895 42.5L1898 45.5H1899L1906.5 53L1905 54.5H1904L1900 58.5H1899L1898.5 60L1901 61.5H1903L1904 62.5H1907L1908 63.5H1910L1912.5 65V66L1913.5 67V75L1914.5 76V78L1915 78.5L1918.5 75V74L1920 72.5H1940L1944 76.5H1945L1955.5 87V88L1957.5 90V91L1960.5 96V100L1959.5 101V108L1958.5 109V111L1948 121.5H1947L1943 125.5H1942L1938 129.5H1937L1932.5 134V135L1930.5 137V138L1929.5 139L1930 140.5H1932L1933 141.5H1934L1935 142.5H1936L1937 143.5L1940 144.5L1942 146.5L1945 147.5L1947 149.5L1950 146.5L1953 145.5L1953.5 146V148L1954.5 149V153L1955.5 154V157L1957 158.5L1958.5 156V155L1962 152.5H1964L1965 151.5H1967L1968 150.5H1974L1975 151.5H1980L1981 152.5H1986L1987 153.5H1991L1991.5 154V157L1992.5 158V164L1995 165.5H2002L2003 166.5H2010L2011 167.5H2018L2019 168.5H2020L2021.5 167V151L2022 150.5H2023L2024 151.5H2026L2027 152.5H2030L2031 153.5H2033L2034 154.5H2046L2050.5 159V160L2056.5 166V167L2057.5 168V172L2058.5 173V176L2059.5 177V183L2056.5 188V192L2057.5 193V194L2058.5 195V196L2059.5 197V198L2060.5 199V200L2061.5 201V202L2062.5 203L2063.5 206L2066 208.5H2067L2071 212.5H2072L2074 214.5L2075.5 214V212L2076.5 211V208L2077.5 207V205L2078.5 204V202L2079.5 201V198L2080.5 197V195L2082 193.5L2090 201.5H2091L2092 202.5H2093L2094 201.5H2095L2096 200.5H2097L2102 197.5H2104L2105 198.5H2106L2107 199.5H2108L2109 200.5H2110L2115 203.5H2116L2120.5 199L2121 197.5H2122L2123 198.5H2125L2126 199.5H2129L2130 200.5H2131L2131.5 200V197L2130.5 196V193L2129.5 192V188L2128.5 187V184L2127.5 183V180L2136 171.5H2140L2141 172.5H2144L2145 173.5H2148L2149 174.5H2152L2153 175.5H2156L2157 176.5H2160L2161 177.5H2165L2166 178.5H2169L2170 179.5H2173L2174 180.5H2177L2178 181.5H2181L2182 182.5H2186L2187 183.5H2190L2191 184.5H2194L2195 185.5H2196L2197.5 188V189L2198.5 190V191L2199.5 192V193L2200.5 194V196L2201.5 197V198L2204 200.5H2205L2215 210.5H2216L2219 213.5H2226L2227 212.5H2233L2234 211.5H2240L2241 210.5H2249L2250 211.5H2253L2254 212.5H2257L2258 213.5H2259L2261.5 216V217L2265.5 222V223L2264.5 224V236L2266 237.5H2267L2269 239.5H2270L2272 241.5H2273L2274 240.5H2276L2281 237.5H2295L2296 238.5H2299L2300 239.5H2302L2303 240.5H2311L2312 239.5H2317L2318 238.5L2320.5 241V242L2322.5 244V245L2324.5 247V248L2326.5 250V251L2329.5 254L2330 255.5L2331 254.5H2332L2335 251.5H2336L2338.5 249L2337.5 248V247L2335.5 244V242L2333.5 239V235L2334.5 234V232L2336 229.5H2340L2341 230.5H2344L2345 231.5H2348L2349 232.5H2352L2353 233.5H2355L2356 234.5H2361L2362 233.5H2372L2375 235.5H2377L2378 236.5H2379L2380 237.5H2381L2382 238.5H2383L2384 239.5H2385L2386 240.5H2387L2388 241.5L2391 242.5L2398 249.5L2399.5 250V319L2398 319.5L2394 323.5H2393L2391 325.5H2388L2387 324.5H2383L2382.5 325L2384.5 327V328L2387.5 331V332L2389.5 335V337L2390.5 338V340L2391.5 341V344L2395.5 349V353L2396.5 354L2395.5 357L2394 358.5H2392L2391 357.5H2388L2387 356.5H2384L2383 355.5H2382L2381 356.5L2378 357.5L2376 359.5H2375L2374 360.5L2371 361.5L2369 363.5H2368L2363 366.5H2361L2360 367.5H2358L2349 376.5H2348L2341 383.5H2340L2337.5 386V387L2336.5 388V389L2335 391.5H2334L2326 383.5H2324L2322 385.5L2319 386.5L2317 388.5L2314 389.5L2312 391.5H2311L2310 392.5H2308L2305 388.5L2300 393.5H2294L2293 392.5H2290L2289.5 393V395L2288.5 396V399L2287.5 400V402L2285.5 404V405L2283.5 407V408L2279.5 413V418L2282 419.5H2283L2284 420.5H2286L2287.5 422V431L2286.5 432V439L2286 439.5H2281L2279.5 441V444L2278.5 445V447L2277.5 448V450L2279.5 452V453L2280.5 454L2279 455.5H2278L2277 456.5H2276L2275 457.5H2274L2273 458.5L2270 459.5L2268.5 461V464L2267.5 465V469L2266.5 470V473L2266 473.5H2264L2263 474.5H2260L2259 475.5H2257L2256.5 476V478L2255.5 479V483L2254.5 484V487L2245 496.5L2243.5 494V492L2242.5 491V488L2241.5 487V482L2240.5 481V477L2239.5 476V470L2238.5 469V464L2237.5 463V457L2236.5 456V450L2235.5 449V448L2236.5 447V443L2237.5 442V437L2238.5 436V432L2244.5 425V420L2248 417.5H2250L2251 416.5H2254L2258.5 412V411L2261.5 408V407L2264.5 404V403L2267.5 400V399L2272.5 394V393L2277.5 388V387L2281 383.5H2282L2291.5 374V371L2292.5 370V367L2293.5 366V364L2294.5 363V360L2295.5 359V356L2295 355.5H2291L2290 356.5H2288L2287.5 357V359L2286.5 360V362L2285.5 363V365L2284.5 366L2283.5 369L2282 369.5L2274 377.5H2273L2268 382.5L2266.5 382V380L2265.5 379V377L2264.5 376V374L2263.5 373V371L2262.5 370V368L2261 366.5H2259L2258 367.5H2256L2255 368.5H2252L2251 369.5H2249L2248 370.5H2245L2242.5 373V374L2240.5 376V377L2237.5 380V381L2234.5 384V385L2231.5 388V389L2228.5 392V393L2227.5 394L2231.5 399V400L2232.5 401L2232 402.5H2228L2227 403.5H2224L2223 404.5H2220L2219 405.5H2212L2211 406.5H2209L2208.5 406V397L2208 396.5H2203L2202 395.5H2198L2197 396.5H2196L2193 399.5H2192L2190 401.5H2186L2185 400.5H2177L2176 399.5H2166L2165 400.5H2160L2159 401.5H2155L2154 402.5H2149L2145.5 405V406L2138.5 413V414L2131.5 421V422L2123.5 430V431L2113.5 441V442L2103.5 452V453L2101.5 455L2102 456.5H2108L2109 457.5H2111L2112.5 460V461L2113.5 462V464L2116 465.5H2118L2119 466.5H2121L2122.5 465V464L2125 461.5H2130L2131 462.5H2132L2136.5 467V468L2139.5 471V472L2141.5 474V481L2142.5 482V484L2141.5 485V486L2140.5 487V488L2139.5 489V490L2136.5 495V509L2135.5 510V514L2134.5 515V519L2133.5 520V523L2132.5 524V525L2130.5 527V528L2128.5 530V531L2125.5 534V535L2123.5 537V538L2122.5 539V541L2121.5 542V544L2119.5 546V547L2114.5 552V553L2110.5 557V558L2105.5 563V564L2100.5 569V570L2098 572.5H2097L2095 574.5L2092 575.5L2090 577.5H2086L2082 573.5H2080L2077 576.5H2076L2071.5 581L2071 582.5H2068L2067.5 583V584L2064.5 587V594L2063 595.5H2062L2057 600.5H2056L2055 601.5H2053L2049.5 605V609L2056.5 616V617L2058.5 619V620L2061.5 625V627L2062.5 628V640L2061.5 641V642L2058 644.5H2055L2054 645.5H2053L2051 647.5H2050L2049 648.5H2044L2043 649.5L2042.5 649V641L2043.5 640V638L2042.5 637V635L2041.5 634V632L2040.5 631V630L2041 629.5H2044L2044.5 629V627L2042.5 625V624L2041 621.5H2040L2039 620.5H2037L2036 621.5H2035L2033 619.5L2031.5 619V617L2032.5 616V615L2034.5 613L2033.5 612L2034.5 611V609L2035.5 608V607L2034 605.5H2031L2028 602.5L2027 603.5H2024L2023 604.5H2021L2020 605.5H2018L2014 609.5H2012L2011 610.5H2009L2008 611.5L2007.5 611L2009.5 609V604L2010.5 603V602L2013.5 599L2012.5 596L2011 594.5H2009L2008 595.5L2005 596.5L2002 599.5H2001L1995.5 605V606L1993 608.5H1987L1984.5 611L1983.5 614L1984.5 615V616L1988 619.5H1991L1992.5 621V624L1993 624.5H1994L1995 625.5L1998 626.5L2002 622.5H2003L2005 620.5L2010 623.5H2014L2016.5 627L2016 628.5H2014L2013 629.5H2010L2009 630.5H2007L2005.5 632V633L2002 636.5H2001L1999 638.5H1998L1996.5 640V641L1994.5 644V645L1996 646.5H1997L1999 648.5H2000L2001.5 650V652L2002.5 653V655L2003.5 656V657L2004.5 658V659L2005.5 660L2006.5 663L2008.5 665V666L2011.5 669V670L2012.5 671V676L2008.5 679V681L2012 684.5L2013.5 685V688L2012.5 689V692L2011.5 693V696L2010 697.5H2008L2005.5 700V701L2004.5 702V703L2002.5 705V706L2001.5 707V708L2000.5 709L1999.5 712L1997.5 714L1996.5 717L1993.5 720V721L1991.5 723V724L1990 725.5H1989L1986 728.5H1985L1982 731.5H1981L1979 733.5H1978L1973 737.5H1968L1967 738.5H1964L1961 741.5L1959 739.5H1958L1954 743.5H1952L1951 744.5H1949L1946 746.5H1942L1941 747.5H1939L1937.5 749V751L1936.5 752V754L1935 755.5H1933L1931.5 754V752L1930.5 751L1931.5 748L1929 746.5H1927L1926 745.5H1922L1921 746.5L1918 747.5L1916 749.5H1915L1913 751.5H1912L1908.5 755V756L1905.5 759V760L1904.5 761V765L1905.5 766V767L1908.5 770V771L1910.5 773V774L1912.5 776V777L1914.5 779V780L1916 781.5H1917L1920 784.5H1921L1922.5 786V787L1924.5 789V790L1925.5 791V793L1926.5 794V797L1927.5 798V801L1928.5 802V809L1927.5 810V815L1924 818.5H1923L1918 822.5L1915 823.5L1906 832.5H1905L1902 835.5H1901L1898.5 833V830L1899.5 829V827L1896 823.5H1894L1893 822.5H1890L1887.5 820V819L1886.5 818V817L1885.5 816L1884.5 813L1882 810.5H1881L1878 808.5H1872L1871.5 808L1872.5 807V804L1872 803.5H1867L1866.5 804V811L1865.5 812V814L1864.5 815V817L1863.5 818V820L1862.5 821V822L1861.5 823V825L1860.5 826V831L1861 831.5H1864L1866.5 834V835L1868.5 838V842L1869.5 843V844L1874 848.5H1877L1881 852.5H1882L1886.5 857V858L1888.5 860V863L1889.5 864V866L1888.5 867V870L1889.5 871V875L1892.5 878V879L1894.5 882V884L1893 885.5H1890L1889 884.5H1888L1884 880.5H1883L1881 878.5H1880L1878 876.5H1877L1875.5 875V873L1874.5 872V871L1870.5 867V862L1868.5 860V859L1867.5 858V856L1868.5 855V853L1867.5 852V851L1863.5 847V845L1857 838.5H1856L1855 840.5L1854.5 840V833L1855.5 832V830L1856.5 829V820L1857.5 819V816L1855.5 813V810L1856.5 809V805L1853.5 802V800L1852.5 799V796L1851.5 795V791L1850.5 790V785L1849.5 784L1848.5 781L1847 779.5L1846 780.5H1845L1842 783.5H1841L1836 787.5H1833L1832 786.5H1830L1827.5 785V784L1828.5 783V780L1829.5 779V773L1828.5 772V770L1827.5 769V768L1825.5 766V765L1823.5 763V760L1822 758.5H1820L1818.5 757V756L1814.5 752V751L1813.5 750V746L1812.5 745V743L1811.5 742V741L1809.5 739L1809 737.5H1803L1802.5 738L1803.5 739V741L1801 744.5L1800 743.5H1793L1792 745.5H1784L1783 746.5H1780L1779.5 747V753L1775 757.5H1774L1773 758.5H1772L1771 759.5H1770L1769 760.5L1766 761.5L1765.5 763L1755 773.5H1754L1751 776.5H1750L1747.5 779V781L1746 782.5H1745L1740 785.5H1737L1734.5 787V789L1733.5 790V797L1734.5 798V808L1731.5 813V824L1731 824.5H1729L1727.5 826V827L1725.5 829V830L1727.5 832L1727 832.5H1725L1724 833.5H1722L1720.5 835L1719.5 838L1717 840.5L1709.5 833V831L1708.5 830V828L1707.5 827V825L1706.5 824V822L1705.5 821V819L1704.5 818V817L1701.5 814V813L1698.5 808V805L1697.5 804V800L1696.5 799V796L1695.5 795V794L1693.5 792V791L1691.5 789V788L1689.5 785V782L1688.5 781V777L1687.5 776V772L1686.5 771V768L1685.5 767V755L1684.5 754V749L1684 748.5H1682L1681 749.5H1679L1676 751.5H1670L1661.5 743V742L1663.5 740V739L1659 734.5H1658L1654 730.5H1652L1651 729.5H1650L1648.5 728V726L1647.5 725V724L1642 718.5H1636L1635 719.5H1617L1616 720.5H1606L1605 719.5H1600L1599 718.5H1595L1594 717.5H1591L1590 716.5H1584L1583 715.5H1582L1581.5 715V712L1580.5 711V709L1579.5 708V707L1577 705.5H1575L1574 706.5H1571L1570 707.5L1567 708.5L1565 710.5H1563L1562 709.5H1560L1559 708.5H1557L1555 706.5H1554L1550 702.5L1544 700.5L1541.5 698V697L1539.5 695V694L1538.5 693V692L1537.5 691V690L1536.5 689V688L1535.5 687L1534.5 684L1533 682.5L1532 683.5H1529L1526 681.5L1523 684.5H1520L1519.5 685L1520.5 686V691L1522.5 694V696L1524.5 699V701L1526 701.5L1529.5 705V706L1531 706.5L1534.5 710V713L1533.5 714V715L1534.5 716V717L1536.5 719V720L1538 722.5L1538.5 722V720L1537.5 719V718L1538.5 717L1539.5 714L1540 713.5H1542L1543.5 715V721L1542.5 722V725L1544.5 727L1545 728.5H1547L1548 727.5H1560L1573.5 714V713L1575 711.5H1576L1576.5 712L1575.5 713V715L1574.5 716V718L1575.5 719V722L1576.5 723L1577.5 726L1579 727.5H1580L1582 729.5H1584L1585 730.5H1588L1589 731.5H1591L1591.5 733L1594.5 736V737L1596 738.5H1597L1598.5 740V741L1597.5 742L1596.5 745L1591.5 750L1590.5 753L1589 754.5H1586L1585.5 755V756L1584.5 757V764L1584 764.5H1582L1581 765.5L1578 766.5L1576.5 768V771L1575 772.5H1570L1567.5 775V777L1566 778.5H1560L1557 780.5H1554L1551 782.5H1549L1547.5 785V788L1547 788.5H1546L1541 791.5H1539L1538 792.5H1535L1534 793.5H1532L1531 794.5H1530L1528 796.5H1527L1524 799.5H1519L1518 800.5H1517L1515 802.5H1513L1512 803.5H1505L1502 806.5H1501L1499 808.5H1490L1487.5 805V800L1486.5 799V796L1485.5 795V793L1484.5 792V781L1482.5 779V778L1481.5 777V775L1480 774.5L1476.5 771V770L1473.5 765V763L1472.5 762V761L1467 755.5H1466L1462.5 752V751L1460.5 749V745L1459.5 744V737L1458.5 736V735L1457.5 734L1456.5 731L1454 728.5L1451 727.5L1448.5 725V724L1447.5 723V720L1446.5 719V718L1443.5 715V714L1442.5 713V712L1441.5 711L1440.5 708L1438.5 706V705L1436.5 703V702L1434.5 700V699L1434 698.5H1431L1430.5 698V697L1431.5 696V692L1432.5 691V689L1432 688.5L1430.5 690V692L1429.5 693V696L1428.5 697L1427.5 700L1426 701.5L1420.5 696V695L1417.5 690V688L1416 685.5L1415.5 686V688L1416.5 689V691L1417.5 692V694L1419.5 696V697L1420.5 698V699L1423.5 704V706L1426.5 711V713L1428.5 715V716L1429.5 717L1430.5 720L1432.5 722V723L1435.5 726V727L1437.5 729L1436.5 730V735L1441 739.5H1442L1445.5 743V745L1446.5 746V748L1447.5 749V750L1446.5 751V758L1447.5 759V762L1448.5 763V765L1449.5 766V767L1452 769.5H1453L1456.5 773V774L1459.5 779V781L1460.5 782V784L1461.5 785V786L1466 790.5H1467L1470 793.5H1471L1473 795.5H1474L1475.5 797V798L1485 807.5H1486L1488.5 810V813L1484.5 815L1486 815.5L1488 817.5H1489L1490.5 820V821L1493 823.5H1499L1500 822.5H1502L1503 821.5H1510L1511 820.5H1513L1514 819.5H1516L1517 818.5H1520L1521 817.5H1527L1528 816.5H1530L1531 815.5H1534L1535 814.5H1536L1538 812.5H1540L1540.5 813V817L1539.5 818V823L1538.5 824V826L1537.5 827V830L1536.5 831V833L1534.5 836V838L1533.5 839V840L1532.5 841V842L1531.5 843V844L1530.5 845V846L1529.5 847V848L1528.5 849L1527.5 852L1525.5 854V855L1524.5 856V857L1522.5 859V860L1518.5 864V865L1513.5 870V871L1507 877.5H1506L1503 880.5H1502L1500 882.5H1499L1497 884.5H1496L1494 886.5H1493L1488 891.5H1487L1485.5 893V894L1479.5 900L1478.5 903L1476 905.5L1473 906.5L1471.5 908V909L1467.5 912V915L1465.5 917L1463.5 923L1462 923.5L1460.5 925V927L1458.5 930V932L1457.5 933V934L1458.5 935V937L1460 937.5L1462.5 940V942L1460.5 945L1461.5 946V949L1460.5 950L1461.5 951V952L1464.5 957V959L1465.5 960V961L1467 961.5L1469.5 965V980L1470.5 981V991L1471.5 992V993L1470.5 994V996L1469.5 997V998L1468.5 999L1467.5 1002L1463 1006.5H1462L1461 1007.5H1460L1455 1010.5H1453L1452 1011.5L1449 1012.5L1441 1020.5H1440L1433 1027.5L1431.5 1028V1032L1430.5 1033L1431.5 1034V1035L1433.5 1037V1038L1434.5 1039V1041L1435.5 1042V1044L1436.5 1045V1053L1435.5 1054V1055L1436.5 1056V1059L1433 1062.5H1431L1430 1063.5H1429L1428 1064.5H1427L1426 1065.5H1425L1424 1066.5L1421 1067.5L1416.5 1072L1418.5 1075V1080L1417.5 1081V1083L1416.5 1084V1090L1415.5 1091L1414.5 1094L1413 1094.5L1406.5 1101V1102L1405.5 1103L1404.5 1106L1402.5 1108V1109L1400.5 1111V1112L1385 1127.5H1384L1383 1128.5H1382L1377 1131.5H1374L1371 1134.5L1370 1133.5H1366L1365 1134.5H1361L1360 1133.5H1354L1353 1134.5H1352L1351 1133.5H1350L1349 1134.5H1348L1343 1137.5H1339L1333 1141.5H1330L1327 1138.5H1325L1324.5 1137L1323 1135.5L1321.5 1135V1129L1320.5 1128V1126L1319.5 1125V1124L1321.5 1122V1117L1320.5 1116L1319.5 1113L1317.5 1111V1110L1316.5 1109V1108L1315.5 1107V1106L1314.5 1105V1104L1313.5 1103V1102L1312.5 1101V1100L1311.5 1099V1098L1310.5 1097V1096L1309.5 1095L1308.5 1092L1303.5 1087V1086L1300.5 1081V1077L1299.5 1076V1073L1298.5 1072V1070L1297.5 1069V1065L1296.5 1064V1060L1295.5 1059V1047L1294.5 1046L1293.5 1043L1290.5 1040V1039L1289.5 1038V1037L1286.5 1032V1030L1284.5 1027V1025L1283.5 1024L1282.5 1021L1278.5 1017V1013L1277.5 1012V1002L1278.5 1001V998L1280.5 995V991L1281.5 990V988L1282.5 987V985L1283.5 984V983L1287.5 979V978L1290.5 975V971L1291.5 970V968L1290.5 967V965L1288.5 963V962L1287.5 961V959L1285.5 956V954L1287.5 952V949L1286.5 948V945L1285.5 944V942L1281.5 936V933L1280.5 932V930L1279.5 929L1278.5 926L1274.5 922V921L1263.5 910V909L1261.5 907V906L1259.5 904V903L1258.5 902V899L1260.5 896V894L1261.5 893V891L1262.5 890V887L1261.5 886V885L1262.5 884V882L1263.5 881V879L1264.5 878V872L1263.5 871V870L1262 868.5L1259 867.5L1258.5 867V865L1257 864.5L1256 862.5H1253L1252 863.5H1250L1249 864.5L1248 863.5H1247L1244 865.5H1239L1237.5 864V863L1234.5 860L1233.5 857L1228 851.5H1216L1215 852.5H1211L1210 853.5H1207L1206 854.5H1204L1201 856.5H1199L1198 857.5H1197L1196 858.5H1195L1190 861.5H1188L1187 862.5H1186L1185 861.5H1183L1182 860.5H1177L1176 859.5H1173L1172 858.5H1170L1169 859.5H1163L1162 860.5H1159L1158 861.5H1157L1156 862.5H1154L1151 864.5H1146L1145 863.5H1144L1143 862.5H1141L1139 860.5H1138L1133 855.5L1130 854.5L1124 848.5H1123L1122 847.5H1121L1120 846.5L1117 845.5L1113.5 842V841L1111.5 838V834L1109.5 832V831L1105 826.5H1104L1102.5 825L1101.5 822L1098 818.5H1097L1095 816.5H1093L1090.5 814V813L1088.5 811V809L1087.5 808V803L1088.5 802L1087.5 801L1086.5 798L1082.5 794L1084 793.5L1087.5 790V789L1089.5 786V780L1091.5 777V763L1090.5 762V758L1091.5 757L1090.5 756V755L1085.5 750V749L1086.5 748V744L1090.5 740V739L1091.5 738L1090.5 737V736L1092.5 733V731L1099.5 724V723L1100.5 722V717L1101.5 716L1102.5 713L1104 711.5H1105L1109.5 707V706L1110.5 705L1111.5 702L1113 700.5H1114L1116 698.5H1121L1127 692.5H1128L1135.5 685V680L1134.5 679V673L1135.5 672V670L1136.5 669V667L1137.5 666V664L1139.5 662V661L1143 657.5H1144L1145 656.5L1148 655.5L1150 653.5H1151L1154.5 650V649L1155.5 648V647L1156.5 646V645L1157.5 644V643L1158.5 642V641L1160 638.5H1166L1169 641.5H1179L1180 642.5H1186L1191 638.5H1193L1194 637.5H1198L1203 633.5H1204L1207 631.5H1210L1211 630.5H1217L1218 629.5H1234L1235 630.5L1236 629.5H1237L1242 626.5H1248L1251 628.5H1256L1257 627.5H1258L1263 624.5L1264 625.5H1267L1267.5 626V629L1268 629.5H1269L1272 627.5L1273.5 628V629L1270.5 632V637L1272.5 639V642L1271.5 643V646L1269 648.5L1267.5 649V652L1269 654.5H1272L1273.5 657V658L1276 659.5H1278L1279 660.5H1281L1282 661.5H1289L1290 662.5H1293L1296 664.5H1298L1299 665.5H1300L1302.5 668V670L1305 673.5H1307L1308 674.5H1311L1312 675.5H1314L1315 676.5H1317L1318 677.5H1319L1320 678.5H1321L1326 681.5H1328L1333.5 676V675L1332.5 674V672L1331.5 671L1332.5 668L1337 663.5H1338L1339 662.5H1341L1342 661.5H1345L1346 662.5H1350L1351 663.5H1352L1355 666.5H1357L1359 668.5H1365L1366.5 670L1367 671.5H1377L1378 672.5H1380L1381 673.5H1383L1384 674.5H1386L1387 675.5H1389L1390 676.5H1394L1395 675.5L1398 674.5L1400 672.5H1404L1405 671.5H1407L1408 672.5H1410L1411.5 674L1412 675.5H1413L1414 674.5H1416L1417 675.5H1419L1420 676.5H1425L1426 675.5H1427L1429.5 673V671L1431.5 668V665L1432.5 664V661L1435.5 656V654L1436.5 653L1437.5 650L1439.5 648V639L1440.5 638V637L1438.5 635V633L1440.5 631L1439 630.5L1438 631.5H1436L1435 630.5H1433L1432 629.5H1431L1426 634.5H1418L1417 635.5L1416 634.5H1415L1411 630.5H1404L1403.5 632L1401 634.5H1397L1391 630.5H1384L1382.5 628V627L1381.5 626V625L1380.5 624V623L1375.5 618V616L1378.5 611L1374.5 607V606L1382 598.5H1391L1392.5 597V596L1393.5 595V593L1395 591.5H1399L1400 592.5H1408L1410 590.5H1411L1414 587.5H1415L1416 586.5H1418L1419 585.5H1421L1422 584.5H1435L1436 585.5H1437L1438 586.5L1441 587.5L1443 589.5H1444L1445 590.5H1447L1448 591.5H1449L1450 592.5H1452L1453 593.5H1460L1461 592.5H1465L1466 593.5H1469L1470 592.5H1471L1473 590.5H1474L1476.5 589V588L1477.5 587V583L1476.5 582V580L1475 577.5H1474L1472 575.5L1469 574.5L1461 566.5H1460L1457 563.5H1456L1455 562.5H1454L1453 561.5L1450 560.5L1444.5 555L1447 553.5H1448L1451.5 550V549L1453.5 547V546L1454.5 545L1451.5 542V541L1454 539.5H1456L1457 538.5L1460 537.5L1460.5 537L1460 535.5H1458L1457 536.5H1453L1452 537.5H1449L1447 539.5H1446L1445 540.5H1440L1439 541.5H1438L1437 542.5L1434 543.5L1432.5 545V550L1435 552.5H1436L1437 553.5H1438L1439 552.5H1442L1442.5 553V555L1441 556.5H1437L1436 557.5H1434L1433 558.5H1432L1430 560.5H1429L1427 562.5H1424L1422.5 561V558L1423.5 557L1423 556.5H1422L1421 555.5H1419L1416.5 554V553L1418 551.5H1419L1420 550.5H1421L1423.5 549L1421 546.5H1419L1418 545.5H1415L1414 544.5H1412L1410 540.5H1409L1408 541.5H1405L1403.5 544V545L1402.5 546V547L1399.5 550V551L1397.5 553V554L1396.5 555L1397.5 556L1396 557.5L1391.5 559V562L1390.5 563V568L1389.5 569V570L1386.5 573V574L1384.5 577V581L1386.5 584V587L1388 588.5L1391 589.5L1392.5 591V592L1392 592.5H1390L1389 593.5H1384L1381 596.5H1380L1376 600.5L1374.5 600V599L1373.5 598V596L1372 594.5H1367L1366 593.5L1365 594.5H1362L1361 595.5H1359L1358.5 596V597L1361.5 600V601L1360 602.5H1355L1354.5 601L1352 598.5L1350.5 600V602L1351.5 603V605L1354.5 608V610L1353.5 611V612L1358 616.5L1359.5 617V621L1359 621.5H1357L1356 620.5L1354.5 621L1355.5 624L1355 624.5H1353L1351.5 626L1352.5 627V629L1353.5 630V632L1353 632.5H1349L1347 630.5H1346L1343.5 628V627L1342.5 626V624L1341.5 623V620L1340.5 619V617L1339.5 616V615L1335.5 610V609L1334.5 608V606L1332.5 604V603L1328.5 599V590L1329.5 589V586L1328 585.5L1326.5 584V583L1325 581.5H1324L1322 579.5H1321L1320 578.5L1317 577.5L1314 574.5H1313L1311 572.5H1309L1308 571.5H1307L1304.5 569V568L1301.5 565V562L1299.5 560V557L1298 555.5H1296L1295 554.5L1293 558.5L1290.5 556V553L1291.5 552V551L1291 550.5H1286L1285 551.5H1284L1281.5 554V556L1282.5 557V558L1281.5 559V562L1282.5 563V564L1287 568.5H1288L1290.5 571L1292.5 577L1301 585.5H1306L1307.5 587L1306.5 588V589L1308 590.5H1309L1310 591.5H1311L1312 592.5L1315 593.5L1317 595.5H1318L1322.5 600V602L1321 603.5L1317 599.5H1315L1314 598.5H1312L1311.5 599V600L1310.5 601L1309.5 604L1313.5 607V611L1312 611.5L1309.5 614V615L1308.5 616V617L1307 619.5H1305L1304.5 619V615L1306.5 612V610L1305.5 609V608L1304.5 607V606L1303.5 605L1302.5 602L1301 601.5L1298.5 599V598L1297 596.5L1294 595.5L1290 591.5H1286L1285 590.5H1284L1278 584.5H1277L1273.5 581V580L1269.5 576V574L1268.5 573V569L1267 566.5H1265L1260 563.5H1257L1252 568.5H1250L1248 570.5H1247L1243 574.5H1242L1241 573.5H1237L1236 572.5H1231L1230 571.5L1229 572.5H1227L1226 573.5H1223L1222 574.5H1221L1219.5 577V586L1215 590.5H1214L1213 591.5H1211L1210 592.5H1207L1204.5 594V596L1202.5 598V599L1199.5 602V604L1198.5 605V607L1197.5 608L1200.5 613L1196.5 617V618L1195.5 619V622L1193 623.5H1191L1187.5 627V628L1185 630.5H1170L1168 632.5H1167L1164.5 635L1164 636.5H1162L1158.5 634V633L1157.5 632L1156.5 629L1155 627.5H1149L1148 628.5H1141L1140.5 628V625L1141.5 624V620L1140.5 619V617L1140 616.5H1138L1136.5 614V608L1137.5 607V606L1139.5 604V600L1140.5 599V597L1141.5 596V593L1140.5 592V590L1139.5 589V579L1138.5 578L1137.5 575L1139 573.5H1140L1142 571.5H1143L1146 568.5H1148L1149 569.5H1152L1153 570.5H1166L1167 571.5H1187L1187.5 571V570L1189.5 568V567L1190.5 566V558L1191.5 557V547L1190.5 546V545L1188.5 543V542L1186.5 540V539L1179 531.5H1177L1174 529.5H1172L1169.5 528V521L1170 520.5H1173L1174 519.5H1176L1177 518.5H1178L1179 519.5H1182L1183 520.5H1186L1187 521.5H1188L1188.5 521V517L1187.5 516V512L1186.5 511L1188 510.5L1193 514.5L1194 513.5H1195L1196 512.5H1197L1198 511.5H1199L1200 510.5H1201L1202 509.5H1203L1204 508.5L1207 507.5L1209.5 504V500L1211 497.5H1212L1213 496.5H1215L1218 494.5H1220L1221 493.5H1222L1225.5 490V489L1226.5 488V486L1227.5 485V483L1228.5 482V480L1230.5 477V475L1232 473.5H1233L1234 472.5H1235L1240 469.5H1242L1243 470.5H1245L1246.5 469L1247 467.5H1252L1254 469.5L1255.5 468V467L1258.5 464L1257.5 463V461L1256.5 460V453L1255.5 452V450L1253.5 447V434L1254.5 433V431L1255.5 430V429L1257 427.5H1261L1267 421.5H1268L1269 420.5L1270.5 421L1269.5 422V428L1268.5 429V433L1272.5 436L1271.5 437V439L1270 439.5L1269 438.5L1268.5 440L1266.5 442V443L1264.5 446V450L1265.5 451V457L1268 458.5H1269L1270 459.5H1272L1272.5 460V463L1273 463.5H1276L1277 462.5H1279L1282 459.5H1284L1285 460.5L1288 461.5L1290 463.5H1291L1291.5 465L1293 466.5H1295L1298 463.5H1299L1300 462.5H1301L1302 461.5H1303L1304 460.5H1305L1306 459.5H1307L1308 458.5H1309L1310 457.5H1311L1316 454.5H1318L1319 455.5H1322L1324.5 458L1325 459.5H1330L1331.5 458V456L1333 453.5H1335L1338 451.5H1340L1341.5 450V448L1340.5 447V442L1339.5 441L1340.5 440V430L1342.5 427V425L1345 422.5H1346L1348 420.5H1350L1351.5 422L1352.5 425L1354.5 427L1355 428.5H1360L1360.5 428V425L1361.5 424V417L1362.5 416V412L1362 411.5L1360 413.5L1357.5 411V410L1355.5 408V401L1356 400.5H1358L1363 397.5H1366L1367 396.5H1371L1372 395.5L1373 396.5H1376L1377 397.5H1386L1393.5 390L1388 384.5H1387L1386 383.5H1384L1383 384.5H1375L1374 385.5H1372L1367 388.5H1365L1362 390.5H1359L1358 391.5H1355L1354 392.5H1352L1350.5 390V389L1349.5 388V387L1341.5 380V379L1342.5 378V370L1343.5 369V367L1342.5 366V363L1341.5 362V359L1340.5 358V352L1342.5 349V347L1343.5 346V345L1345.5 343V342L1346.5 341V340L1348.5 338V337L1356.5 329V328L1367 317.5L1368.5 317V310L1365 306.5H1364L1360 302.5H1357L1356 303.5H1354L1353 304.5H1352L1351 305.5L1348 306.5L1346.5 308V309L1344.5 311V312L1341.5 317V328L1337.5 332V333L1318.5 352V354L1317.5 355V358L1316.5 359V362L1315.5 363V367L1314.5 368V371L1313.5 372L1314.5 373V374L1315.5 375V376L1316.5 377V378L1317.5 379L1318.5 382L1324.5 389V391L1322.5 394V396L1320.5 399V401L1319.5 402V403L1317 405.5H1315L1311.5 408V413L1310.5 414V421L1309.5 422V429L1308.5 430V432L1307.5 433V435L1306.5 436V438L1305 439.5H1301L1300 438.5H1298L1295.5 442V444L1294.5 445V446L1291 448.5H1286L1285.5 448V444L1284.5 443V439L1283.5 438V436L1282.5 435V433L1280.5 430V428L1278.5 425V423L1277.5 422V420L1276.5 419V416L1275.5 415V413L1274.5 412V409L1273.5 408V406L1272.5 405V404L1271.5 403L1270.5 400L1269 398.5H1268L1262.5 404V405L1255 412.5H1254L1251 414.5H1249L1248 415.5H1246L1243 412.5H1242L1240 410.5H1239L1237.5 409V407L1236.5 406V401L1235.5 400V395L1234.5 394V380L1233.5 379V365L1232.5 364L1233.5 363V362L1235.5 360V359L1237.5 357V356L1241 352.5H1242L1244 350.5H1245L1248 347.5H1249L1251 345.5H1252L1254 343.5H1255L1259.5 339V338L1264.5 333V332L1269.5 327V326L1270.5 325V324L1272.5 322V321L1273.5 320V319L1274.5 318L1275.5 315L1277.5 313V312L1278.5 311V310L1279.5 309L1280.5 306L1282.5 304V303L1283.5 302V300L1284.5 299V298L1285.5 297V296L1286.5 295V294L1287.5 293V292L1288.5 291V290L1289.5 289V288L1290.5 287V286L1291.5 285V284L1292.5 283V282L1293.5 281V280L1294.5 279V278L1295.5 277V276L1296.5 275L1297.5 272L1299.5 270V269L1304.5 264V263L1309.5 258V257L1312.5 254V253L1316.5 249V248L1319.5 245V244L1323.5 240V239L1326.5 236V235L1328 234.5L1330 232.5L1333 231.5L1335 229.5H1336L1337 228.5L1340 227.5L1342 225.5H1343L1344 226.5H1353L1354.5 225L1355.5 222L1359.5 217L1360.5 214L1362.5 212L1363 210.5H1373L1374 211.5H1375L1376 210.5H1378L1379 209.5H1381L1382 208.5H1384L1385 207.5H1388L1389 208.5H1390L1392 210.5H1393L1396 213.5H1397L1399 215.5H1400L1403 218.5H1404L1406 220.5L1407.5 221V222L1406 223.5H1405L1403 225.5H1402L1399.5 227L1400.5 228L1401.5 231L1403.5 233L1404.5 236L1407 238.5H1408L1414 232.5L1417.5 236V237L1425 244.5H1428L1429 245.5H1432L1433 246.5H1436L1437 247.5H1440L1441 248.5H1443L1446 251.5H1447L1451 255.5H1452L1457 260.5H1458L1462 264.5H1463L1469.5 271V272L1471.5 274V275L1473.5 278V289L1472.5 290V291L1467.5 296L1467 297.5H1466L1463 299.5H1461L1458 301.5H1453L1448 298.5H1446L1441 295.5H1439L1436 293.5H1434L1433 292.5H1432L1429 290.5H1427L1426 289.5L1423 290.5L1421.5 292L1422.5 293V294L1430.5 302V303L1431.5 304V313L1432.5 314V327L1434 328.5H1435L1436 329.5H1437L1438 330.5L1441 331.5L1444 334.5H1445L1446 335.5L1446.5 335V331L1447.5 330V329L1446.5 328L1445.5 325L1443.5 323V321L1445.5 319V318L1447 316.5H1449L1451 318.5L1454 319.5L1456 321.5H1457L1458 322.5H1459L1461 324.5L1464 325.5L1465 324.5H1466L1468.5 322V319L1466.5 316V314L1465.5 313L1464.5 310L1480 294.5H1484L1485 295.5H1487L1492 300.5L1493.5 299V297L1494.5 296V294L1495.5 293V291L1496.5 290V289L1495.5 288L1494.5 285L1492.5 283V282L1491.5 281V276L1492.5 275V273L1493.5 272V270L1494.5 269L1493.5 268V267L1492.5 266V264L1489.5 259L1490 257.5L1491 258.5H1493L1494 259.5H1496L1497 260.5H1499L1500 261.5H1503L1504 262.5H1506L1508.5 264V266L1510.5 269V271L1511.5 272V273L1509 274.5H1506L1503.5 276V285L1504.5 286V287L1508 290.5H1511L1512 289.5H1514L1515 288.5H1517L1519.5 286V280L1520.5 279V277L1523 274.5H1524L1525 273.5H1526L1528 271.5L1531 270.5L1533 268.5H1534L1536 266.5H1537L1539 264.5H1540L1542 262.5H1543L1545 260.5H1546L1548 258.5H1549L1551 256.5H1552L1557 252.5H1560L1562.5 254L1561.5 255V256L1559.5 258L1558.5 261L1556.5 263V264L1559 265.5H1563L1564 266.5L1569 260.5H1573L1574 259.5H1582L1584 257.5H1585L1588 254.5H1589L1591 252.5L1592.5 253V254L1595.5 257V258L1597.5 260V261L1599 262.5L1601.5 260L1602.5 257L1606.5 252V250L1604.5 248L1603.5 245L1599.5 240L1600.5 239L1601.5 236L1604 233.5L1605 234.5H1607L1608 235.5H1611L1612 236.5H1614L1615 237.5H1618L1619 238.5H1621L1622 239.5L1625 240.5L1627 242.5L1630 243.5L1633 246.5H1634L1641 253.5H1642L1648 259.5H1649L1656 266.5L1657.5 264V263L1658.5 262V261L1659.5 260V259L1660.5 258V256L1658.5 254V253L1654.5 248V247L1653.5 246V243L1653 242.5H1650L1649 241.5H1647L1646.5 241V237L1647.5 236V228L1646.5 227V224L1645.5 223V220L1644.5 219V210L1645.5 209L1646.5 206L1648.5 204V203L1650.5 201V200L1652.5 198V197L1654.5 195V194L1656.5 191V189L1657.5 188V185L1658.5 184V180L1659.5 179V176L1660.5 175V172L1666 166.5L1667 167.5H1669L1670 168.5H1672L1673 169.5H1675L1676 170.5H1678L1679 171.5H1681L1682 172.5H1683L1683.5 173V177L1684.5 178V187L1683.5 188V190L1681.5 193V195L1680.5 196V198L1679.5 199V201L1678.5 202V203L1682.5 208V210L1683.5 211V217L1684.5 218V237L1683.5 238V250L1685.5 252V253L1689.5 258V259L1690.5 260V263L1689.5 264V267L1688.5 268V271L1687.5 272V274L1685.5 276V277L1684.5 278V279L1683.5 280V281L1682.5 282V283L1681.5 284L1680.5 287L1678.5 289V290L1675.5 295V297L1676 297.5H1678L1679 298.5H1681L1682 299.5L1683.5 297V296L1684.5 295V294L1686 292.5L1689 291.5L1691 289.5L1692.5 289V287L1693.5 286V282L1694.5 281L1695.5 278L1698.5 275V274L1699.5 273V270L1698.5 269V268L1697.5 267V265L1696.5 264V259L1697.5 258V255L1698.5 254V250L1698 249.5H1695L1694 248.5H1692L1691.5 248V243L1690.5 242V236L1691.5 235V232L1692.5 231V228L1693.5 227V225L1694.5 224V221L1695.5 220V218L1694.5 217V216L1693.5 215V214L1692.5 213V212L1691.5 211V210L1690.5 209V208L1687.5 203V201L1689.5 199V198L1693.5 194V193L1698.5 188V179L1697.5 178V172L1698 171.5H1700L1701.5 173V175L1702.5 176V179L1703.5 180V182L1704.5 183V184L1703.5 185V191L1702.5 192V199L1701.5 200V204L1702 204.5H1703L1708 207.5L1708.5 207V205L1707.5 204V200L1706.5 199V195L1705.5 194V193L1709 189.5H1710L1713 186.5H1714L1716 184.5H1717L1718 183.5H1729L1730 182.5L1742 194.5L1742.5 193L1741.5 192V190L1740.5 189V187L1739.5 186V184L1738.5 183V180L1737.5 179V176L1736.5 175V153L1738 151.5H1739L1740 150.5H1742L1743 149.5H1744L1745 148.5H1747L1748 147.5H1751L1752 148.5H1767L1768 147.5H1772L1773 146.5H1776L1777 145.5H1778L1778.5 145L1776.5 142V140L1773.5 135V131L1774.5 130V129L1777.5 124V122L1778.5 121L1779.5 118L1781 116.5H1783L1784 115.5H1788L1801 102.5H1803L1804 101.5H1807L1808 100.5H1812L1813 99.5H1817L1818 98.5H1819L1819.5 98V96L1820.5 95V92L1823 90.5H1829L1830 89.5H1836L1837 88.5H1838L1844 94.5H1845L1859 80.5H1871L1871.5 80V76L1872.5 75V70L1873.5 69V67L1874.5 66V65L1875.5 64V63L1876.5 62V61L1877.5 60V59L1878.5 58L1879.5 55L1881 54.5L1885 50.5H1886L1890 46.5H1891L1894.5 43ZM423.5 45L424 44.5L424.5 45V66L423.5 67V69L422.5 70V71L421.5 72V73L420.5 74L419.5 77L417 78.5H414L413 79.5H412L400 91.5H398L397 92.5H396L395 93.5H393L390 95.5L389 94.5H388L386 92.5H385L383 90.5H382L380.5 89L381.5 88V87L382.5 86V85L383.5 84L384.5 81L386.5 79V78L387.5 77V76L388.5 75V74L389.5 73V72L390.5 71L391.5 68L393.5 66V65L396.5 62V61L398.5 59V58L400.5 56V55L403.5 52V51L406 48.5H417L418 47.5H419L420 46.5H421L423.5 45ZM554.5 60L555 59.5H560L561 60.5H567L569.5 62V63L573.5 67V68L576 70.5H589L589.5 72L591.5 74L592.5 77L594.5 79V84L593.5 85V91L595 91.5L602.5 99V100L606 103.5H611L612 104.5H617L618 105.5H621L622 106.5H624L625 105.5H626L627 104.5H628L629 103.5L632 102.5L634 100.5H638L639 99.5H644L645 98.5H651L652 99.5H656L657 100.5H659L659.5 102L662.5 105V106L664.5 108V109L666.5 112V118L667.5 119V121L666.5 122V123L664.5 125V126L661 129.5H660L659 130.5H658L653 133.5L652 132.5H650L647 130.5H641L640 131.5H636L635 132.5H631L630 133.5H625L624 134.5H611L610 133.5H607L606 132.5H604L603 131.5H601L598 129.5H596L595 128.5H594L593 127.5H592L587 124.5H585L583.5 123V121L582.5 120V115L581.5 114V107L580.5 106V96L579.5 95V94L578.5 93V92L577.5 91L576.5 88L574.5 86V85L573 83.5H572L571 82.5H568L567 81.5H564L563 80.5H560L558.5 79V78L552.5 72V68L553.5 67V63L554.5 62V60ZM1649.5 67L1650 66.5H1654L1655.5 69V70L1656.5 71V73L1658.5 76V78L1657.5 79V80L1656.5 81L1655.5 84L1652 87.5L1649 88.5L1647 90.5H1646L1645 91.5H1644L1642 93.5H1641L1640 94.5L1637 95.5L1635 97.5H1634L1633 98.5L1630 99.5L1625 103.5L1622 104.5L1617 108.5L1614 109.5L1612 111.5H1611L1607.5 115V116L1601.5 122V123L1589.5 136V137L1587.5 140V142L1584.5 147V149L1582.5 152V154L1581.5 155V156L1578.5 161V163L1577.5 164V165L1576.5 166V167L1575.5 168V169L1574.5 170V171L1573.5 172V173L1572.5 174V175L1569.5 180V194L1570.5 195V200L1572.5 202V203L1575.5 206V207L1579.5 211V212L1582.5 215V216L1579 218.5L1578 217.5H1570L1569 216.5H1562L1561 215.5H1558L1556.5 213V209L1555.5 208V207L1554 205.5H1553L1548 202.5H1546L1543.5 201V194L1542.5 193V190L1545 187.5H1546L1548 185.5L1549.5 185V172L1551.5 170V169L1553.5 167V166L1555.5 164V163L1557.5 161V160L1559.5 158V157L1561.5 155V154L1562.5 153L1556.5 150L1557.5 149V148L1560.5 145V144L1563.5 141V140L1566.5 137V136L1569.5 133V132L1572.5 129V127L1571.5 126V121L1570.5 120V117L1576 111.5H1577L1587 101.5H1588L1592 97.5H1593L1597 93.5H1598L1607 85.5H1609L1610 84.5H1613L1614 83.5H1618L1619 82.5H1622L1623 81.5H1626L1627 80.5H1629L1632 77.5H1633L1641 69.5H1642L1643 68.5H1646L1647 67.5H1649L1649.5 67ZM468.5 71L469 70.5H471L472 71.5L475 72.5L476.5 74V79L477.5 80V85L478.5 86V90L479.5 91V93L480.5 94V96L481 96.5L482 95.5H483L486 92.5H491L493.5 94V97L494.5 98V109L493.5 110V112L492.5 113V115L491.5 116V118L490 119.5H485L484 120.5H480L479 121.5H474L473 122.5H469L468 123.5H467L465 125.5H464L462 127.5L459 128.5L457 130.5H456L454 132.5H453L452 133.5H448L447 134.5H442L441.5 134V132L440.5 131V126L442 124.5H443L447 120.5H448L452 116.5H453L453.5 115L453 114.5L452 115.5H444L443 116.5H434L433 117.5H423L422 116.5H421L420 115.5L417 114.5L415.5 113V111L416.5 110V108L417.5 107V105L418.5 104V102L419.5 101V99L420.5 98V96L421.5 95V93L422.5 92V90L423.5 89V87L427.5 83V82L430 79.5H432L433 80.5H434L436 82.5H437L438 83.5H439L440 84.5H441L442 85.5H443L444 86.5H445L446 87.5L449 88.5L450.5 90V91L452.5 93V94L455.5 97V98L458.5 101V102L462 105.5H467L468 106.5H472L472.5 106L471.5 105V103L470.5 102V100L468.5 97V95L467.5 94V92L466.5 91V89L465.5 88V87L464.5 86V84L463.5 83V79L464.5 78V77L466.5 75V74L468.5 71ZM542.5 74L543 73.5L544.5 75V77L545.5 78V80L547.5 83V88L548.5 89V101L547.5 102V107L546.5 108V113L545.5 114V119L545 119.5H542L541 120.5H538L537 121.5H533L531 119.5H530L527.5 118V103L527 102.5H524L523 103.5H518L517 104.5L516.5 104V90L515.5 89V84L516 83.5H524L533 74.5H536L537 75.5H542L542.5 74ZM2124.5 89L2125 88.5H2128L2129 89.5H2142L2143 90.5L2146 91.5L2148 93.5L2151 94.5L2153 96.5L2156 97.5L2158 99.5L2161 100.5L2163 102.5L2166 103.5L2166.5 104V107L2165.5 108V110L2164.5 111V114L2163.5 115V118L2162.5 119V122L2161 123.5H2139L2138 122.5L2137 123.5H2136L2135 124.5H2134L2133 125.5H2132L2131 126.5H2130L2129 127.5L2126 128.5L2122.5 125V124L2118.5 120V119L2114.5 115V114L2112.5 112L2113.5 111V106L2114.5 105V101L2115.5 100V96L2116.5 95V94L2118 92.5L2121 91.5L2123 89.5L2124.5 89ZM566.5 103L567 102.5L569.5 105L570.5 108L572.5 110V111L573.5 112V114L574.5 115V118L575.5 119L572 129.5H570L569 128.5H565L564 127.5H562L559 124.5H558L554.5 121V119L555.5 118V115L556.5 114V112L557.5 111V110L561 106.5H562L565 103.5L566.5 103ZM2175.5 107L2177 106.5L2178 107.5H2181L2182 108.5H2184L2185 109.5H2187L2190 111.5H2192L2195 113.5H2197L2200 115.5H2202L2204.5 117L2202.5 119V120L2199.5 123V124L2197 126.5H2192L2191 125.5H2188L2187 124.5L2184 123.5L2179 118.5H2178L2173.5 114L2174.5 113V108L2175.5 107ZM384.5 134L385 133.5H391L393 135.5H394L399 138.5H407L408 139.5H416L419.5 143V144L424.5 149V150L426.5 152V153L429.5 156L426 159.5H425L423 161.5H422L403.5 180V181L402.5 182V183L401.5 184V185L400.5 186L399.5 189L397.5 191V192L396.5 193V202L395 203.5H394L392 205.5L389 206.5L387 208.5H386L385 209.5L382 210.5L380 212.5H379L377.5 210V208L376.5 207L375.5 204L373 201.5H372L370 199.5H369L366 196.5H365L362 193.5H361L360.5 193V190L361.5 189V187L362.5 186V184L363.5 183V180L364.5 179V177L365.5 176V173L366.5 172V170L367.5 169V166L369.5 163V161L370.5 160V158L371.5 157V156L372.5 155V153L373.5 152L372.5 151V149L369.5 144V142L367.5 139V137L368 136.5H372L373 135.5H378L379 134.5H384L384.5 134ZM569.5 141L571 140.5L572 141.5H584L585 142.5H586L587 143.5H588L589 144.5H590L591 145.5L594 146.5L595.5 148V150L594.5 151V152L593.5 153V154L592.5 155V156L591.5 157V158L590.5 159V160L589.5 161V162L588.5 163V164L587.5 165L586.5 168L585 168.5L583 170.5L580 171.5L577.5 174V175L576.5 176V178L575.5 179V180L572.5 185V187L571 189.5H570L569 188.5H564L563.5 188V186L562.5 185V182L561.5 181V177L560.5 176V172L559.5 171V157L560.5 156V154L561.5 153V151L562.5 150V148L569.5 141ZM2145.5 148L2147 147.5L2156.5 157V162L2156 162.5H2143L2142 161.5H2138L2137 160.5H2133L2132.5 160V158L2134.5 156V155L2136.5 153V152L2139 149.5H2141L2142 148.5H2145L2145.5 148ZM529.5 149L530 148.5H532L534 150.5H535L538 152.5H541L542 151.5H545L546 150.5H549L550 149.5L550.5 150V152L551.5 153V158L550.5 159V160L549.5 161L548.5 164L546.5 166V168L555.5 177V193L554.5 194V197L552 199.5H551L548 202.5H547L545 204.5H540L539 203.5H538L536.5 202V201L534.5 199L533.5 196L516.5 179V172L517 171.5H518L519 172.5H523L524 173.5H528L529 174.5L529.5 174V173L528.5 172V171L527.5 170V169L526.5 168V167L525.5 166V165L522.5 160V159L524.5 157V156L527.5 153V152L529.5 150V149ZM624.5 150L625 149.5H627L627.5 150L626.5 151V153L625.5 154V156L624.5 157V159L623.5 160V162L622.5 163V165L623.5 166V168L625.5 171V173L626.5 174V176L628 177.5L628.5 177V175L629.5 174V172L630.5 171V169L631.5 168V166L632.5 165V163L633.5 162V160L636 158.5H637L639 156.5L642 155.5L644 153.5H645L646 152.5H647L648 151.5L651 150.5L652.5 153V154L653.5 155V156L654.5 157V158L655.5 159V160L656.5 161V163L657.5 164V165L658.5 166V167L659.5 168V169L662.5 174V177L661.5 178V188L662 188.5L663 187.5H664L665 186.5H666L667 185.5H668L669 184.5H670L671 183.5L674 182.5L675.5 181V180L678.5 177V176L681 173.5L682 174.5H683L686 177.5H687L691 181.5H692L695 184.5H696L696.5 186L704.5 194V197L705.5 198V203L706 203.5H708L711 201.5H713L716 199.5H718L719.5 202V203L721.5 205V206L722.5 207V208L723.5 209L724.5 212L727 213.5H728L729 214.5H730L731 215.5H732L733 216.5H734L735 217.5H736L737 218.5H738L739 219.5H740L742.5 222V223L745.5 226V227L747.5 229V231L748.5 232V234L749.5 235V237L750.5 238V240L751.5 241V243L752.5 244V247L751 247.5L749 249.5H748L745 252.5H744L741.5 255L745 258.5H746L749 261.5H750L753 264.5H754L756 266.5H757L760 268.5H762L763 269.5H765L766 270.5H767L767.5 272L769.5 274L770.5 277L772.5 279L773.5 282L775.5 284V285L777 286.5H779L780 287.5H786L787.5 289L786.5 290V294L785.5 295V299L784.5 300V301L782.5 303L781.5 306L779.5 308L778.5 311L776.5 313V314L774.5 316L774 317.5L771 316.5L767 312.5H766L764.5 311V310L762.5 308L761.5 305L759.5 303V302L757.5 300V299L754 295.5L753 296.5H750L749 297.5H747L745.5 300V308L748.5 311V312L751.5 315V316L753 317.5H754L758 321.5H759L762.5 325V326L764.5 328V330L765.5 331V334L766.5 335V337L767.5 338V341L768.5 342V344L767.5 345V349L766.5 350V353L766 353.5L761 350.5H759L757 348.5H756L754 346.5H753L750 343.5H749L747 341.5H746L743 338.5L742.5 339V340L744.5 342V343L747.5 346V347L750.5 350V351L754.5 355V356L757.5 359V361L758.5 362L758 363.5H756L755 362.5H752L751 361.5H749L748 360.5H746L745 359.5H743L742 358.5H740L738 356.5L735 355.5L733 353.5H732L731 352.5L728 351.5L725 348.5H724L718.5 343V341L720.5 339L717 335.5H716L712 331.5H711L708 328.5H707L704 325.5H703L701 323.5L700.5 324V327L698 328.5H691L690 329.5H683L682 330.5L676.5 325V322L678.5 319V317L679.5 316V315L681 313.5H693L694 312.5H699L700 311.5H705L706.5 310L705.5 309V307L704.5 306V303L705.5 302V300L706.5 299V297L707.5 296V295L708.5 294V293L709.5 292V291L710.5 290V289L711.5 288V287L712.5 286V285L715.5 280L714.5 279V276L713.5 275V272L712.5 271L711.5 268L704 260.5H703L700 257.5H699L698 256.5H697L692 253.5H690L687.5 252V251L691.5 247L690.5 246V245L688.5 243V242L687.5 241L686.5 238L683 234.5H679L676.5 232V231L673 227.5L672.5 229L670.5 231V232L669 233.5H666L665 234.5H662L661 235.5H654L653 234.5H648L647 233.5H643L642 232.5H637L636 231.5H633L632 230.5H630L627 228.5H625L620 225.5H617L616 224.5H614L613 223.5H610L609 222.5H608L607.5 221L603.5 217V215L604.5 214V213L607.5 210V209L609.5 207L609 206.5H601L600.5 206V203L599.5 202V193L598.5 192V182L599.5 181V178L600.5 177V174L601.5 173V170L602.5 169V166L603.5 165V164L605.5 162V161L608.5 158V157L611 154.5H613L614 153.5H616L619 151.5H621L622 150.5H624L624.5 150ZM661.5 151L662 150.5H670L671 151.5H676L677 152.5H679L685.5 159V160L690.5 165V169L691.5 170V171L691 171.5H687L686 170.5H676L675 171.5H674L673 172.5H671L670 173.5L669 172.5H668L660.5 160V152L661.5 151ZM495.5 153L496 152.5H498L502.5 157V160L500.5 163V165L498.5 168V170L497 172.5L495.5 171V170L493.5 168V167L491.5 165V164L489.5 162V161L487.5 159V158L486.5 157L488.5 155L489 153.5H495L495.5 153ZM430.5 161L432 160.5L433 161.5H434L436 163.5H437L438.5 165V166L437.5 167V169L436.5 170V172L435.5 173V175L436 175.5L437 174.5H438L439 173.5H440L445 170.5H447L450 168.5L451.5 170V171L456.5 176V177L459 179.5L461.5 177V176L463.5 174V173L465.5 171V170L467 168.5L468.5 170V171L472.5 175V176L473.5 177V180L474.5 181V184L475.5 185V188L476.5 189V192L477.5 193V196L478 196.5L479.5 195V193L481.5 190V185L480.5 184V181L479.5 180V176L478.5 175V171L477.5 170V165L480 163.5H481L482 162.5H484L485 163.5H486L488 165.5H489L492.5 169V170L496.5 174V175L497.5 176V180L498.5 181V185L499.5 186V190L500.5 191V195L501.5 196V202L502.5 203V209L503.5 210V211L510 217.5H511L516 222.5H517L521 226.5H522L525 229.5L526.5 230V234L525.5 235V238L523 239.5H517L515.5 241L516.5 244L518.5 246V250L517.5 251V253L516 254.5L515 253.5H512L511 252.5H508L507 251.5H504L503 250.5H502L499 248.5H497L494 246.5H489L488 247.5H485L484 248.5H483L482 249.5H481L480 250.5H479L474 253.5H472L471 254.5H466L465 255.5H460L459 256.5H454L453 257.5H446L445 258.5L443.5 257V256L441.5 253V251L439 248.5L436 247.5L434 245.5H433L432 244.5H431L430 245.5H428L427 246.5H426L424.5 245L423.5 242L421.5 240V239L420.5 238V237L417.5 232L419 230.5H420L421 229.5H423L424 228.5H426L427 227.5H429L430 226.5H443L444 225.5H446L447 224.5H448L448.5 223L448 222.5H446L443 220.5H441L440 219.5H438L437 218.5H436L435 219.5H427L426 220.5H415L412.5 218V217L411.5 216L410.5 213L412 211.5L415 210.5L417 208.5H418L419 207.5H420L421 206.5H422L424.5 205L424 204.5H414L413 203.5H412L411 202.5H410L409 201.5H408L407 200.5L404 199.5L403.5 198L405.5 195V193L406.5 192V190L407.5 189V187L408.5 186V184L409.5 183V182L410.5 181V180L411.5 179L412.5 176L417 171.5H418L422 167.5H423L426 164.5H427L430.5 161ZM564.5 192L566 191.5L569 193.5H571L572 194.5H573L575.5 197V198L578.5 201V202L580.5 204V205L581.5 206V208L583.5 211V213L585.5 216V218L586.5 219V220L587.5 221V223L589.5 226V227L588.5 228L587.5 231L583.5 236L585 237.5H588L589 238.5H591L592 239.5H594L595.5 241V258L596 258.5L598.5 256V255L599.5 254V253L601.5 251L602.5 248L605 245.5L606.5 247V248L608.5 250V251L610.5 253V254L612.5 256V262L611.5 263V268L610.5 269V270L611.5 271V272L612.5 273L613.5 276L615.5 278V279L617 281.5L618.5 280V279L620.5 277V276L621.5 275V274L622.5 273V272L625.5 267V264L626.5 263V261L627.5 260V258L628.5 257V255L629.5 254V234L630 233.5H635L636 234.5H640L641 235.5H644L645 236.5H647L648 237.5H649L656.5 245V246L657.5 247V254L658.5 255V256L657.5 257V258L656.5 259V260L653.5 265V267L654.5 268V269L657.5 274V283L652 288.5H651L644 295.5H642L641 296.5H638L637 297.5H634L629 293.5L627.5 294V296L626.5 297V300L625.5 301V302L624.5 303V305L623.5 306V307L622.5 308V309L619.5 314V316L618.5 317V319L617.5 320V322L614.5 325V326L612.5 328V329L609 332.5H602L601 333.5H600L597.5 336V337L594.5 340V349L594 349.5H591L590 350.5H588L583.5 355V356L581.5 358V359L577.5 364V366L576.5 367V368L575.5 369V370L574.5 371V372L571.5 377V379L570.5 380V383L569.5 384V387L568.5 388V404L569 404.5H571L572 405.5H575L576 406.5H578L578.5 407V409L579.5 410V413L580.5 414V417L581.5 418V420L582.5 421V423L583.5 424V426L585 427.5H587L588 426.5H591L592 425.5H595L600 428.5H602L603 429.5L606 430.5L611 434.5H612L614.5 437V438L618 441.5H620L623 443.5H625L627 445.5H628L633 449.5H644L645 450.5H650L650.5 451V466L651.5 467V472L653.5 475V477L655.5 480V482L656.5 483V484L664.5 492V493L666 494.5H668L670 492.5H671L672.5 491V489L673.5 488V486L674.5 485V483L675.5 482V478L674.5 477V473L673.5 472V468L672.5 467V463L670.5 461V460L667.5 457L669 455.5H670L671 454.5H672L673 453.5H674L675 452.5L678 451.5L680.5 449V448L686.5 442V440L689.5 435V429L688.5 428V425L686.5 422V420L685.5 419L684.5 416L681.5 413V412L676.5 407V405L678.5 403V402L679.5 401L680.5 398L682.5 396V395L683.5 394V389L682.5 388V384L681.5 383V379L680.5 378V370L679.5 369V360L678.5 359L681 356.5H682L683 355.5H685L686 356.5H688L689 357.5H691L692 358.5H694L695 359.5H699L700 360.5H702L707 356.5L709 358.5H710L722.5 371V373L724 375.5H732L733 376.5H735L735.5 377V391L736.5 392V399L737.5 400V404L740 405.5H742L743 406.5H744L744.5 408L746.5 410V411L749 413.5L750 412.5H751L754 409.5H755L759.5 405V403L762.5 398V396L763.5 395L764.5 392L767.5 389V388L769 386.5L769.5 387V388L772.5 393V395L773.5 396V397L774.5 398V399L775.5 400V401L776.5 402L777.5 405L779.5 407V408L780.5 409V410L781.5 411V412L782.5 413V414L783.5 415V416L784.5 417V418L785.5 419V420L786.5 421V422L787.5 423V424L790.5 429L789.5 430V432L788.5 433V435L787.5 436V437L789 437.5L792 440.5H793L803 450.5H804L805 451.5H808L809 452.5H811L812 453.5H813L815 455.5H816L817.5 457V459L818.5 460V463L819.5 464V466L822 467.5H824L826.5 470V471L827.5 472V476L828.5 477V485L827 485.5L822 490.5H821L819 492.5H818L817 493.5H815L814 494.5H812L811 495.5H809L799 505.5H793L792 506.5H784L783 505.5H778L777 504.5H758L754.5 508V509L750 513.5H749L748 514.5L745 515.5L740.5 520V521L737.5 524V525L734.5 528V529L731.5 532V533L726.5 538L727 539.5L728 538.5H730L736.5 532V531L741.5 526L742 524.5L745 523.5L747 521.5L750 520.5L752 518.5H753L756 516.5H761L762 515.5H766L769 518.5H770L771.5 520V521L765.5 527V529L766.5 530V534L767.5 535V539L768.5 540V542L769.5 543V545L770 545.5L773 546.5L775 548.5H776L777 549.5H786L787 548.5H789L791.5 546L792.5 543L794.5 541V540L796 538.5L796.5 539V545L798 545.5L800.5 548L797 551.5H796L793 554.5H792L791 555.5H789L788 556.5H786L783 558.5H781L780 559.5H779L778 560.5H777L776 561.5L773 562.5L771 564.5H770L764 570.5H761L758.5 569V562L760 560.5H761L763 558.5H764L766 556.5H767L768.5 555L768 554.5H756L755 555.5H753L752.5 556V559L751 560.5H750L748 562.5H747L746 563.5H745L740 566.5H738L735 568.5H733L730.5 571L729.5 574L727.5 576V582L728.5 583V584L730 586.5H732L732.5 585L733 584.5L733.5 585V587L732 588.5H730L729 589.5H727L726 588.5L725 589.5H723L722 590.5H718L717 591.5H713L712 592.5H711L710.5 593L711 593.5H714L715 592.5H718L719.5 594L719 594.5H717L716 595.5H714L713 596.5H706L704.5 598L706 598.5L706.5 600L705.5 601V604L704.5 605V606L701.5 609V610L700 610.5L699 608.5H698L697 607.5L696.5 608V609L699.5 614V616L697.5 618L696.5 621L694.5 623V624L693 625.5L692.5 625L694.5 622V620L691.5 617V614L690.5 613V612L690 611.5L689.5 612V615L690.5 616V618L689.5 619L690.5 620V623L691.5 624V628L693.5 629V633L694.5 634V640L693.5 641V642L691.5 644L691 645.5H690L687 647.5H685L684 648.5H683L680 652.5H679L678 653.5H676L674 655.5H673L671.5 658V659L670 660.5H669L666 663.5H665L659.5 669V670L657.5 672V674L656.5 675V681L657.5 682V685L658.5 686V688L659.5 689V690L662.5 695V699L663.5 700V702L664.5 703V705L665.5 706V716L664.5 717V719L663 720.5H659L657.5 718V717L656 715.5L654.5 715V714L653.5 713V712L652.5 711L651.5 708L649.5 706V705L647.5 702V698L648.5 697V694L647.5 693L646.5 690L642.5 686V685L640 683.5H638L633 686.5H631L628 682.5H627L624 680.5H621L620 681.5H612L611 680.5H608L607 681.5H604L602.5 683L603.5 684V688L604.5 689L604 689.5H600L599 690.5H594L589 686.5H585L584 687.5H583L582 686.5H580L579 685.5H574L573 686.5H571L570 687.5L567 688.5L561 694.5H560L559 695.5L556 696.5L551.5 701V702L550.5 703V712L551.5 713V717L549.5 720V723L548.5 724V730L547.5 731V743L548.5 744V745L550.5 747V750L551.5 751V753L555.5 757V758L556.5 759V760L557.5 761L558.5 764L560 765.5H561L562 766.5H564L565 767.5H567L570 770.5H571L572 769.5H574L575 768.5H580L581 767.5H584L585 766.5H588L589 765.5L592 764.5L595.5 761V759L596.5 758V752L599 749.5H601L602 748.5H604L605 747.5H608L609 746.5H610L611 747.5H616L617 746.5H619L620.5 748V752L616.5 756V758L615.5 759V760L616.5 761V763L615.5 764V766L614.5 767V769L614 769.5L612 767.5L611.5 768V769L612.5 770V771L611.5 772V779L610.5 780V782L606.5 786L608 787.5H609L610 786.5L611 787.5H612L613 786.5H618L619 787.5H623L626 785.5H628L629 786.5H632L633 785.5H634L635 786.5H637L638 787.5H639L641 789.5H642L644.5 792V798L643.5 799V801L642.5 802V808L643.5 809V810L641.5 812V816L640.5 817V819L642.5 821L643.5 824L651.5 832L652 833.5H655L656 834.5H660L665 831.5H667L669 829.5H672L673 830.5H677L684 835.5H688L693 830.5H695L695.5 830V825L696.5 824V822L697 821.5H698L700 819.5H704L705 817.5H706L707 818.5H710L711 817.5H712L714 815.5H715L717 813.5H718L721 810.5H724L725.5 812L724.5 813L723.5 816L720.5 817V818L722.5 820V823L720.5 825V826L719.5 827V829L722 832.5H724L725.5 830V827L723.5 825V820L731 817.5L731.5 817V814L733 812.5L736 816.5H740L744.5 821V822L746 823.5H751L752 822.5H758L759 823.5H760L762 825.5H768L769 824.5H770L771 822.5H778L779 821.5H785L785.5 822L785 822.5H784L781.5 824L783 826.5H784L785 827.5H789L790 828.5H791L793 830.5H794L794.5 831V835L796 836.5H800L802 838.5L805 839.5L809.5 844V847L811 848.5H813L818 853.5H819L820 854.5H825L826 855.5L828 853.5H835L836 854.5H839L840 855.5H842L843 856.5H845L846 857.5H847L849 859.5H850L854.5 864L855 865.5H857L859.5 869V872L860.5 873V875L861.5 876V878L862.5 879V880L864 881.5H866L866.5 882V887L861.5 892L864 894.5H872L873 895.5H875L875.5 896V901L876 901.5L878 899.5H879L881 897.5H882L883 898.5H886L887 899.5H889L890 900.5H892L895 902.5H897L898 903.5H900L901.5 905V906L903.5 908V909L902.5 910L903 911.5H904L905 910.5H908L909 909.5H911L912 910.5H915L916 911.5H919L920 912.5H922L923 913.5H930L931 912.5H933L934 913.5H935L937 915.5H938L939 916.5L942 917.5L946 921.5H947L952 926.5H954L955 927.5H959L960 928.5H963L965.5 932V935L966.5 936V938L967.5 939V947L966.5 948V951L965.5 952V954L962.5 957V958L951.5 969V970L950.5 971L949.5 974L947.5 976V977L943 981.5H942L940.5 984V986L939.5 987V990L940.5 991V1001L939.5 1002V1007L938.5 1008V1013L935.5 1018V1022L934.5 1023V1027L932.5 1029V1030L930.5 1032V1033L927.5 1036V1041L926.5 1042V1043L920.5 1048V1050L920 1050.5H913L912 1051.5H909L908 1052.5H905L904 1053.5H902L897 1057.5H894L893 1058.5H891L890 1059.5H889L887 1061.5H886L878.5 1069V1070L876.5 1072V1074L875.5 1075V1080L876.5 1081V1084L875.5 1085V1090L874.5 1091V1092L868.5 1098V1099L867.5 1100L866.5 1103L864.5 1105V1106L863.5 1107L862.5 1110L850.5 1122L848.5 1128L843.5 1133L842.5 1136L839 1139.5H838L836 1141.5H835L834 1142.5H832L831 1141.5H824L819 1138.5H814L810 1134.5L809.5 1135V1138L813 1141.5H814L818.5 1146L817.5 1147V1151L821.5 1155V1158L820.5 1159V1160L818.5 1162V1163L817.5 1164L816.5 1167L813 1170.5H812L811 1171.5H809L804 1174.5H797L796 1175.5H786L785 1174.5L784.5 1175V1178L785.5 1179V1182L784.5 1183V1189L785.5 1190V1191L784 1191.5L781 1194.5H776L775 1195.5H774L769 1192.5H767L765.5 1194V1199L766.5 1200V1203L770 1205.5H772L774 1203.5L776.5 1207L775 1208.5H774L773 1209.5L770 1210.5L769.5 1212L764.5 1217V1225L763.5 1226V1228L762.5 1229V1230L762 1230.5H756L750.5 1236V1238L749.5 1239V1243L753.5 1247V1248L755 1249.5H756L757 1250.5H759L761.5 1252V1255L760.5 1256V1259L759 1261.5H758L755 1264.5H754L751.5 1267V1268L750.5 1269V1271L749.5 1272V1274L748.5 1275L747.5 1278L746 1279.5H745L739.5 1285V1286L738.5 1287V1288L739.5 1289V1294L740.5 1295V1298L741.5 1299V1300L744.5 1303V1304L744 1304.5H742L741 1303.5H737L734 1306.5H733L731 1308.5H730L727.5 1311V1313L726.5 1314V1321L727 1321.5L729.5 1318V1316L730.5 1315V1312L734 1308.5H735L737 1306.5H739L740 1307.5H742L743.5 1310V1311L744.5 1312V1314L746.5 1317V1319L747.5 1320V1321L749 1322.5H750L754 1326.5H755L757 1328.5H759L760 1329.5H762L763 1330.5H765L765.5 1331V1332L764.5 1333L763.5 1336L763 1336.5H761L760 1337.5H757L753 1333.5L751.5 1336V1337L749 1339.5H748L746 1341.5H742L741 1340.5H738L733 1336.5H730L729 1335.5H727L726 1334.5H725L722 1331.5H721L717 1327.5H716L709.5 1321V1320L706.5 1317V1316L702.5 1311L703 1310.5H704L705 1311.5L708 1312.5L712 1316.5H713L716 1319.5H717L718 1320.5H719L724 1323.5H726L726.5 1322L726 1321.5H723L722 1320.5H721L720 1319.5L717 1318.5L708 1309.5H707L703 1305.5H702L699.5 1303V1301L698.5 1300V1298L697.5 1297L698.5 1296V1294L699.5 1293V1290L698.5 1289V1287L696.5 1284V1276L695.5 1275V1265L696.5 1264V1262L697.5 1261V1258L698.5 1257V1256L705.5 1249L705 1248.5H703L702 1247.5H699L698 1246.5H696L695.5 1246L696.5 1245V1244L699.5 1241V1240L701.5 1238V1236L702.5 1235V1229L703.5 1228V1223L704 1222.5H706L709 1224.5H711L711.5 1224V1222L712.5 1221V1217L713.5 1216V1211L714.5 1210V1206L714 1205.5L711 1204.5L709.5 1206V1210L708.5 1211V1214L708 1214.5H705L704.5 1214V1208L705.5 1207V1202L706.5 1201V1195L707.5 1194V1188L708.5 1187V1184L711.5 1179V1177L710.5 1176V1173L709.5 1172V1161L711 1160.5L712.5 1159V1157L713.5 1156V1154L714.5 1153V1151L715.5 1150V1147L717.5 1144V1142L718.5 1141V1139L719.5 1138V1136L720.5 1135V1133L721.5 1132V1128L722.5 1127V1124L723.5 1123V1120L722.5 1119V1112L721.5 1111L722.5 1110V1107L723.5 1106V1093L724.5 1092V1090L725.5 1089V1088L726.5 1087V1085L727.5 1084V1073L728.5 1072V1065L729.5 1064V1058L730.5 1057V1051L731.5 1050V1043L732.5 1042V1032L731.5 1031V1023L730.5 1022V1018L729 1017.5L727 1015.5L724 1014.5L723.5 1014V1012L722 1010.5H721L719 1008.5H718L717 1007.5H716L715 1006.5H714L713 1005.5L710 1004.5L708 1002.5L705 1001.5L703 999.5H702L700 997.5H699L696 994.5H695L692.5 992V991L690.5 988V986L691.5 985L690.5 984V983L688.5 981V980L686.5 978V977L685.5 976V975L684.5 974V973L683.5 972L682.5 969L680.5 967V966L679.5 965V964L676.5 959V957L675.5 956V955L674.5 954V953L673.5 952L672.5 949L669.5 946V945L668.5 944L667.5 941L666 940.5L662 936.5H661L658.5 935V934L659.5 933V930L656.5 925L657.5 924L658.5 921L661 918.5H662L665.5 915V914L667.5 912V910L666 908.5L665.5 910L664 911.5L660.5 909V907L661.5 906L660.5 905V901L662.5 899V898L663.5 897V895L665.5 893V892L666.5 891L665.5 890V889L667 887.5H669L670 886.5H671L673.5 884V883L675.5 881V878L678 875.5H680L681.5 874V873L683.5 871V870L685.5 868L683.5 867V864L684.5 863V862L683.5 861V858L682.5 857V856L684.5 854L683.5 853V849L680.5 846V845L679 844.5L677.5 843V841L676.5 840L677.5 839V838L675.5 836V835L673 833.5H670L666 837.5H665L663.5 839V840L665.5 842V843L664 844.5L661 845.5L659.5 844V842L659 841.5L658 842.5H657L655.5 841L655 839.5H653L652 838.5H650L649 837.5H648L647 839.5L646 838.5L643 837.5L641.5 836V835L642.5 834L639 830.5L636 829.5L635.5 828L634 826.5L633.5 828L632 829.5L630 827.5H629L627.5 826V823L628.5 822L627.5 821V819L621.5 813V812L620 811.5L615.5 807L617.5 806L615 803.5L613 805.5H612L611 804.5H607L604 802.5H601L600 801.5H599L598 800.5H596L595 799.5H590L589 798.5H588L578 788.5H577L575 786.5H574L573 785.5H571L570 784.5H564L559 787.5H554L553 786.5H551L550 785.5H547L546 784.5H545L540 781.5H537L536 780.5H534L531 778.5H529L528 777.5H527L525 775.5L522 774.5L519 771.5H515L514 770.5H512L511 769.5H510L506 765.5H505L504 764.5L501 763.5L497.5 760V759L495.5 757V756L494.5 755L496.5 754V751L497.5 750V747L495.5 744V742L494.5 741V740L492.5 738V737L488.5 733V732L484 727.5H483L478.5 723V722L476 719.5L473 718.5L470.5 716V711L469 709.5H468L463.5 705V704L462.5 703V701L461 699.5H458L456.5 698V697L451.5 692V690L450.5 689L449.5 686L447.5 684V683L446.5 682V680L445.5 679V675L444 673.5H443L441 671.5H437L436 670.5H434L433.5 671V675L434.5 676V681L435.5 682L436.5 685L442.5 691V692L444.5 694V695L446.5 696V697L447.5 698V700L450.5 703V704L455.5 709V710L456.5 711V713L457.5 714V716L461.5 722V726L462 726.5H465L466.5 728V729L469.5 732V733L470.5 734L467 737.5L465.5 736L464.5 733L459 727.5H458L456 725.5L453 724.5L451.5 723V715L448 711.5H447L444 708.5H442L441 707.5L438 706.5L432.5 701L433 700.5H436L438.5 698V695L435.5 692V691L434 689.5L431 688.5L428.5 686V685L427.5 684V683L426.5 682V681L425.5 680V679L424.5 678V677L421.5 672V670L419.5 667V665L418.5 664V662L417.5 661V660L412 654.5H411L408 651.5H405L403 649.5H400L399 648.5H397L395.5 647L393.5 641L389.5 637V636L387.5 634V633L386.5 632V631L383.5 626V624L382.5 623V621L378.5 617V616L374.5 611V606L373.5 605L372.5 602L370.5 600V596L371.5 595V583L370.5 582V580L369.5 579V576L370.5 575V573L371.5 572V569L372.5 568V559L373.5 558V546L372.5 545V538L371.5 537V534L370.5 533V531L369.5 530V528L368.5 527V525L369 524.5H371L372 525.5H374L375 526.5H377L379.5 529L381.5 535L383 535.5L383.5 535V527L382.5 526V523L381.5 522V519L380 517.5H379L376 514.5H375L371 510.5H370L365 505.5H364L361 502.5H359L358 501.5H356L353 499.5H351L349.5 498V497L348.5 496V494L346.5 491V485L347.5 484V483L345 481.5H344L342 479.5H341L338.5 478V473L337.5 472V469L329.5 461V455L326.5 452V451L325 450.5L323 448.5H322L319.5 446V443L318.5 442V437L313.5 432V431L309.5 427V426L308.5 425V423L307.5 422V419L306.5 418V416L305 414.5H299L298 413.5H288L287 412.5H285L284 411.5L281 410.5L267 396.5H266L265 395.5H263L260 393.5H258L255 391.5H253L250 389.5H244L243 390.5H239L238 389.5H237L236 388.5H235L230 385.5H228L226 383.5H225L222 380.5H221L219 378.5H218L215 380.5H213L211.5 382V385L212.5 386V391L212 391.5H209L208 392.5H206L205 393.5H203L202 394.5H201L198 397.5H197L195 399.5H193L192 400.5H190L189 401.5L187.5 400V391L188.5 390V387L189.5 386V382L192 379.5H193L195 377.5H196L197.5 376L195 373.5L191 377.5H190L186.5 381V382L185.5 383V384L184.5 385V386L183.5 387L182.5 390L178 394.5H177L173.5 398V400L174.5 401V402L177.5 405V406L175.5 408V409L173.5 411V412L168 417.5H167L162 421.5L159 422.5L156.5 426V428L154 430.5H153L151 432.5L148 433.5L144.5 437V439L143 441.5H142L137 445.5H130L129 446.5H128L127 447.5L124 448.5L122 450.5L119 451.5L117 453.5H116L114 455.5H113L110 457.5H107L106 458.5H104L103 459.5H101L100.5 459V457L101 456.5H102L105 453.5H106L108 451.5H109L110 450.5L113 449.5L119 443.5H120L123 441.5H128L135 433.5H136L139 430.5H140L142.5 428V427L148.5 421V415L149.5 414V411L152.5 406L151 405.5L146 408.5H145L143 406.5L140.5 409L140 410.5H139L137.5 409V408L135 405.5L133.5 407L133 408.5L131.5 406V404L131 403.5H129L125 407.5H120L119.5 407V398L120.5 397V395L116 390.5L115 391.5H112L111 392.5H109L108 393.5L99 384.5L97.5 384V376L92.5 371V368L93.5 367V365L94.5 364V362L96.5 360V359L100.5 354V352L101.5 351V349L103 346.5H105L106 345.5H109L111 347.5H113L113.5 346L116.5 343V342L118 340.5H119L120 341.5H123L127.5 337V334L126.5 333V330L125 329.5L123.5 328L124.5 325L127.5 322L127 321.5H123L122 322.5H121L120 323.5L117 324.5L114 328.5L112 326.5H111L110 325.5H104L103 326.5H98L95 324.5H93L92 323.5H91L89.5 322V321L88.5 320L87.5 317L82.5 312V311L79.5 308V307L81 305.5H82L84 303.5H85L88 300.5H89L90 299.5H91L92 298.5L95 297.5L97 295.5H98L103 292.5H108L108.5 293V297L107.5 298V300L108 300.5H121L121.5 300V299L120.5 298L119.5 295L117.5 293L116.5 290L115 288.5H114L110 284.5H109L107.5 283V282L106.5 281V280L105.5 279L104.5 276L101.5 273V272L95 265.5L92 264.5L90 262.5L88.5 262V259L89.5 258V256L90.5 255V254L93 251.5H103L111.5 243V242L112.5 241V236L113.5 235V233L115.5 231V230L118.5 227V226L121 223.5H123L124 222.5H126L127 221.5H128L131 218.5H132L134 216.5H135L138 213.5H143L144 214.5H145L156 203.5H157L162 206.5H164L166.5 209V210L168.5 212L169.5 215L171 216.5L172.5 215L173 213.5H182L184.5 215V219L185 219.5H187L188 220.5H190L191 221.5H193L194 222.5H195L196 221.5H199L200 220.5H202L203 221.5H205L206 222.5H207L212 225.5H214L215 226.5H218L219 227.5H225L226 228.5H229L232 230.5H236L237 229.5H238L239 228.5H241L242 227.5L243 228.5L246 229.5L248 231.5H249L254 234.5H256L259 236.5H261L262 237.5H264L267 239.5H269L270 240.5H272L283 250.5H286L287 251.5H290L290.5 250L293.5 247V246L297 242.5H298L301 239.5H302L303 238.5H307L308 239.5H312L313 240.5L315 238.5H316L322 232.5H323L324 231.5H325L326 230.5H327L332 227.5H334L336.5 230L337.5 233L339 234.5H340L343.5 231V230L344.5 229V224L345.5 223V222L347 221.5L348 222.5H349L351.5 225L352.5 228L354.5 230V231L356.5 233V234L358.5 236V237L360.5 239L361 240.5L363.5 238V237L365.5 235V234L367.5 232V231L370 228.5L370.5 229V241L371 241.5H374L375 240.5H377L378 239.5H379L380.5 237V236L381.5 235V234L382 233.5H384L385 234.5H390L393 237.5H394L398 241.5H399L401 243.5H402L403 244.5H405L406 245.5H407L412 248.5H414L417 250.5H419L420 251.5H422L423 252.5H428L429 251.5H431L440.5 261L439 262.5H438L431.5 269V270L432 270.5H434L435 271.5H438L439 272.5H441L442 273.5H447L448 272.5H456L457 271.5H461L462 270.5H463L464 269.5L467 268.5L467.5 270L469.5 272V273L471.5 275V276L474 278.5L476.5 276V275L480.5 271V269L474.5 263V262L475.5 261V260L477.5 258V257L478 256.5H480L481 255.5H487L488 254.5H490L491 253.5H492L495 256.5H496L498.5 259V260L500.5 262V263L502.5 265V266L504 267.5H507L508 266.5H512L513 267.5H514L516 269.5H517L520 272.5H521L523 274.5L524 273.5H527L528 272.5H531L532 271.5H543L543.5 271V268L542.5 267V261L544 259.5H545L546 258.5L549 257.5L551 259.5L554 260.5L556 262.5H557L558.5 264V278L559 278.5L560.5 276V274L561.5 273V270L562.5 269V267L563 266.5H568L568.5 266V264L569.5 263V257L570.5 256V251L571.5 250V248L569.5 246L568.5 243L566.5 241V240L564.5 238V237L556.5 229V209L557.5 208V205L558.5 204V203L559.5 202L560.5 199L562.5 197V196L563.5 195L564.5 192ZM-0.5 200L0 199.5H7L9 201.5H10L11 202.5H12L14 204.5H15L15.5 205V208L14 208.5L11 211.5H10L7 213.5H1L0 214.5L-0.5 214V200ZM2398.5 201L2399 200.5L2399.5 201V214L2399 214.5H2394L2393 215.5L2391.5 213V208L2398.5 201ZM544.5 229L546 228.5L550 232.5H551L557.5 239V240L558.5 241V242L561.5 247V249L559.5 251V252L558 253.5H556L554 251.5L551 250.5L549 248.5H548L545 250.5H543L534.5 242L540.5 236V235L542.5 233V232L544.5 229ZM-0.5 251L0 250.5L5 255.5H6L12 261.5H13L33.5 282V288L32.5 289V292L37 296.5L37.5 296V294L36.5 293V286L35.5 285L36 284.5H39L40 285.5H47L48 286.5H53L58.5 292V293L64.5 299V300L66.5 302V303L60 309.5H58L57 310.5H51L49.5 312V326L47 329.5H40L39.5 328L35 323.5H34L33 322.5H32L31 321.5L28 320.5L26.5 319V318L25.5 317V313L23 311.5H21L18 309.5L17 310.5H15L14 311.5H10L8.5 309V308L7.5 307V302L8.5 301L8 300.5H7L6 301.5H5L4 302.5H3L0.5 304V305L1.5 306V308L2.5 309L3.5 312L2.5 313V314L0.5 316V317L0 317.5L-0.5 317V251ZM690.5 264L691 263.5H694L698.5 268V277L697.5 278V279L694 282.5H692L691 283.5H687L685.5 282V277L684.5 276V275L685.5 274V271L686.5 270V268L687.5 267V266L689 264.5L690.5 264ZM1091.5 294L1092 293.5H1096L1097 294.5H1102L1102.5 295V300L1101.5 301V306L1103.5 308V309L1105.5 311V312L1108.5 315V317L1106.5 319V320L1103.5 323V324L1100.5 327L1100 328.5H1099L1098 329.5L1095 330.5L1093 332.5H1092L1091 333.5H1090L1089 334.5H1088L1087 335.5H1086L1085 336.5L1082 337.5L1080 339.5H1078L1075 341.5L1074 340.5H1071L1070 339.5H1067L1066 338.5H1063L1062 337.5H1059L1058 336.5H1055L1054 335.5H1051L1048.5 334L1052.5 330L1053.5 327L1051 325.5H1050L1049 324.5H1048L1047 323.5H1046L1045 322.5H1044L1042 320.5L1040.5 320L1041 319.5H1043L1044 318.5H1047L1048 317.5H1051L1051.5 317V313L1050 311.5H1047L1046 310.5H1044L1043 309.5H1040L1037.5 308L1038.5 307V305L1041.5 300V298L1042 297.5H1045L1046 296.5H1049L1050 295.5H1052L1060.5 304V305L1062 306.5H1063L1071 298.5H1072L1073 297.5L1074 298.5H1075L1077 300.5H1078L1081 302.5L1085 298.5H1086L1090 294.5L1091.5 294ZM626.5 307L627 306.5H629L632.5 309V314L633 314.5H634L636 312.5H637L640 316.5H641L648 322.5H649L650 323.5H651L653 325.5H654L655.5 327V333L656 333.5H661L665.5 338L664 339.5H663L660 342.5H659L658 341.5H656L655 340.5H653L652 339.5H650L648.5 338V337L647.5 336L646.5 333L645 332.5L644.5 334L639.5 339V340L638 340.5L634 344.5H633L630 347.5L628.5 346V343L627.5 342V340L627 339.5H622L621 340.5H619L618.5 340L620.5 338V337L623.5 334V333L624.5 332V320L625.5 319V313L626.5 312V307ZM54.5 338L56 337.5L58 339.5H61L62 338.5H63L64 339.5H65L67 341.5H68L71 343.5H74L74.5 344V346L72 347.5H71L70 348.5H68L66 346.5H65L62 343.5H55L54.5 343V338ZM643.5 351L644 350.5H653L653.5 351V353L646 360.5H641L640.5 360V358L639.5 357L640.5 356V355L643.5 352V351ZM666.5 358L667 357.5H669L670.5 359V364L669.5 365V366L668 368.5L665.5 367V366L663.5 363L666.5 358ZM88.5 386L89 385.5H92L93 386.5H95L95.5 387V392L93 393.5H91L90 392.5L87 391.5L83.5 388L86 386.5H88L88.5 386ZM1165.5 409L1166 408.5H1168L1169 409.5H1175L1176 408.5H1179L1179.5 409L1178.5 410V411L1177.5 412V413L1176.5 414V415L1175.5 416L1174.5 419L1172.5 421L1173 421.5H1176L1177 420.5H1186L1186.5 421V423L1185.5 424V429L1184.5 430V431L1183.5 432V433L1182.5 434V435L1181.5 436V437L1180.5 438L1179.5 441L1180 441.5H1184L1186.5 443V445L1189.5 450V452L1190.5 453L1191.5 456L1193 457.5L1196 458.5L1197.5 460V462L1198.5 463V466L1199.5 467V469L1200.5 470V472L1201.5 473L1202.5 476L1203 476.5H1205L1206 477.5H1209L1210.5 479V484L1209.5 485V486L1206.5 489L1209.5 494L1207 496.5H1206L1203 499.5H1193L1192 500.5H1189L1188 501.5H1185L1184 502.5H1183L1180 500.5L1175 505.5L1174 504.5H1169L1168 505.5H1167L1165 507.5H1163L1161.5 506V505L1169.5 497V496L1171 494.5H1173L1175.5 493L1173 491.5H1169L1168 490.5H1167L1164.5 487L1166 485.5H1167L1168 484.5H1169L1171.5 483L1167.5 477L1168.5 476V471L1169 470.5H1179L1179.5 470V463L1177.5 461V460L1174 456.5H1171L1170 455.5H1168L1166.5 454V453L1165.5 452L1168.5 447L1166.5 445V444L1166 443.5L1164.5 445L1163.5 448L1163 448.5L1162.5 448V439L1161.5 438V436L1159.5 434V433L1158.5 432V430L1159.5 429V425L1160.5 424V419L1161.5 418V417L1162.5 416V415L1163.5 414V413L1164.5 412L1165.5 409ZM175.5 418L176 417.5H182L184.5 420V422L177 429.5H176L174 431.5H172L169.5 429V427L168.5 426V423L170 422.5L173 419.5H174L175.5 418ZM1281.5 440L1282 439.5L1282.5 440V442L1283.5 443V445L1284.5 446L1281.5 451V453L1280 454.5L1278 452.5H1277L1273.5 449V448L1272.5 447V444L1274 442.5H1276L1279 440.5H1281L1281.5 440ZM1152.5 451L1154 450.5L1161.5 458V459L1159.5 462V464L1158.5 465V471L1159.5 472V474L1158.5 475V476L1157.5 477V478L1156.5 479L1155.5 482L1153 484.5H1152L1151 485.5L1148 486.5L1146 488.5H1145L1144 489.5H1138L1137 488.5H1134L1133.5 487L1134.5 486V485L1137.5 480V478L1138.5 477V476L1137.5 475V472L1136.5 471V469L1135.5 468V465L1149 451.5H1152L1152.5 451ZM2148.5 461L2150 460.5L2151.5 462V466L2152.5 467V470L2153.5 471V475L2154.5 476V491L2155.5 492V494L2156.5 495V498L2157.5 499V501L2158.5 502V504L2159.5 505V507L2160.5 508V510L2162.5 513V515L2163.5 516V517L2163 517.5H2161L2160 516.5H2158L2155 514.5L2153.5 516V518L2152.5 519V521L2151.5 522V525L2150.5 526V530L2151.5 531V532L2153.5 534L2154.5 537L2156.5 539V545L2156 545.5L2151 540.5L2149.5 543V544L2147.5 546L2147 547.5L2146.5 547V543L2145.5 542V536L2146.5 535V525L2145.5 524V518L2146.5 517V513L2147.5 512V497L2146.5 496V494L2145.5 493V491L2143.5 488V477L2144.5 476V472L2148 468.5H2149L2150.5 467L2147.5 462L2148.5 461ZM311.5 463L313 462.5L314 463.5H321L321.5 464L320.5 465V470L319.5 471V476L320.5 477V478L322.5 480V481L324.5 483L324 484.5H323L318.5 480V479L317.5 478L316.5 475L312.5 471V469L311.5 468V463ZM826.5 491L827 490.5H829L829.5 491V493L828.5 494V495L827.5 496V497L826.5 498V499L825.5 500V501L824.5 502V503L823.5 504L822.5 507L824 507.5L825 506.5H827L828 507.5H829L829.5 509L827.5 511V512L830 513.5H832L833 514.5H834L836 512.5H838L839 513.5H840L842.5 515V519L841.5 520V522L843 522.5L844 521.5H845L846.5 523V527L847.5 528V530L848.5 531V534L847.5 535V537L846.5 538V540L845 541.5H842L838.5 539V537L839.5 536V532L838 530.5L831.5 537L831 538.5H827L826.5 538L830.5 534L828 532.5H826L825 531.5H805L803.5 530V529L807.5 525L805.5 523V522L809.5 518V517L810.5 516V515L813.5 510V508L815.5 505V503L816.5 502L817.5 499L820.5 496V495L823 492.5H824L826.5 491ZM343.5 500L345 499.5L346 500.5H348L349 501.5H351L354 503.5H358L359 504.5H361L362.5 506V507L364.5 509V510L366.5 512V513L368 513.5L370 515.5H371L373.5 517V518L375.5 521V523L373 524.5L372 523.5H370L365 520.5H363L360.5 518V517L358 514.5L355 513.5L352 509.5H351L350 508.5H348L345.5 507V506L343.5 503V500ZM769.5 509L770 508.5H775L776 509.5H778L779 510.5H781L783 512.5H784L786 514.5H787L787.5 516L787 516.5H782L779 514.5H777L776 513.5H775L772 510.5H771L769.5 509ZM772.5 538L773 537.5L773.5 538L774.5 541L776 542.5H778L779 543.5H785L785.5 544L782 547.5H779L778 546.5H777L776 545.5L773 544.5L771.5 543L770.5 540L772.5 538ZM2145.5 553L2147 552.5L2147.5 554L2151.5 558V559L2155 562.5H2156L2158 564.5H2159L2160 565.5H2162L2163 566.5H2164L2167 563.5H2168L2168.5 564V567L2169.5 568V573L2169 573.5H2167L2166 574.5H2163L2162 575.5H2160L2159.5 577L2157.5 579V580L2155.5 582V583L2154 584.5L2144 578.5L2142.5 581V582L2141.5 583V585L2139 588.5H2133L2132.5 588V583L2131.5 582V579L2132.5 578V577L2133.5 576V575L2135 572.5H2141L2142.5 571V567L2143.5 566V560L2144.5 559V556L2145.5 555V553ZM1261.5 576L1262 575.5L1262.5 576V581L1263.5 582V584L1262.5 585V587L1261.5 588V589L1260 589.5L1257.5 587V584L1256.5 583V582L1257.5 581V579L1259 578.5L1261.5 576ZM2138.5 591L2139 590.5H2142L2142.5 591V593L2143.5 594V596L2144.5 597V600L2145.5 601V609L2144.5 610V611L2142.5 613V614L2139.5 617V627L2138.5 628V630L2137.5 631V639L2135.5 641V642L2134 643.5H2133L2128 646.5H2123L2122 647.5H2114L2105 656.5H2104L2100.5 653V648L2100 647.5H2097L2096 648.5H2091L2090 649.5H2088L2087 650.5H2085L2080 653.5H2074L2073.5 654L2076 656.5H2077L2079.5 659V660L2078.5 661V663L2077.5 664V666L2076.5 667V669L2075.5 670V672L2073 674.5L2070 675.5L2067.5 673V672L2068.5 671V667L2069.5 666L2064.5 663V662L2063.5 661L2062.5 658L2065 656.5H2067L2071.5 652V651L2073 649.5H2074L2075 648.5H2076L2078 646.5H2079L2079.5 645L2084 640.5H2087L2088 639.5H2093L2094 638.5H2100L2101 639.5H2104L2105.5 638V636L2106.5 635V634L2107.5 633V632L2108.5 631V630L2109.5 629V628L2111 625.5L2112 626.5H2113L2115 628.5H2116L2117 627.5H2118L2124 621.5H2125L2129.5 617V616L2130.5 615V613L2131.5 612V611L2132.5 610V608L2133.5 607V605L2132.5 604V596L2133.5 595V594L2135 591.5H2138L2138.5 591ZM1260.5 592L1261 591.5L1261.5 592V593L1263.5 595V596L1264.5 597V608L1263 609.5L1262 608.5H1261L1258 611.5L1255.5 609V598L1254.5 597V595L1255 594.5H1258L1260.5 592ZM1299.5 618L1300 617.5H1302L1302.5 618V620L1301.5 621V623L1300.5 624L1301.5 625V628L1300 630.5H1299L1297 628.5H1296L1295 627.5H1293L1292 626.5H1290L1289 625.5H1288L1287 624.5L1284 623.5L1282.5 622V621L1284 618.5H1289L1290 619.5H1292L1293 618.5H1299L1299.5 618ZM1357.5 639L1358 638.5L1361 641.5H1365L1366 640.5H1367L1368 641.5H1371L1372 642.5H1374L1374.5 643L1373 644.5H1365L1364 643.5H1362L1361 642.5H1357L1356.5 641L1357.5 640V639ZM1426.5 640L1427 639.5L1428.5 640L1427 641.5L1425.5 642V643L1426.5 644L1423 646.5H1421L1420 647.5H1418L1417 646.5H1416L1414.5 644L1415 643.5H1418L1419 641.5H1424L1426.5 640ZM2091.5 650L2093 649.5L2094 650.5H2096L2097.5 652V655L2094 658.5L2092 656.5L2089 657.5L2087.5 659V660L2086 662.5L2085 661.5H2084L2082.5 660V656L2084.5 654L2085 652.5H2090L2091.5 651V650ZM681.5 707L682 706.5L684 708.5H685L686.5 710L685.5 711V714L685 714.5L683.5 713V712L684.5 711L681.5 708V707ZM674.5 708L675 707.5H680L680.5 709L678 710.5H674L673.5 709L674.5 708ZM2008.5 720L2010 719.5L2012.5 722V723L2011.5 724V727L2009.5 730V732L2008.5 733V735L2007.5 736V738L2006.5 739L2005.5 742L2004 742.5L2002.5 740V739L2001.5 738V737L2000.5 736V731L2001.5 730V729L2003.5 727V726L2005.5 724V723L2008.5 720ZM677.5 721L678 720.5H680L681.5 722V724L682.5 725V730L682 730.5L680.5 730L679.5 727L677.5 725V721ZM650.5 735L651 734.5H654L655 735.5H664L665 736.5L668 737.5L671 740.5H673L674 739.5H677L678 740.5H679L682 743.5H683L687 747.5H688L689 748.5H692L693 749.5H694L695.5 751L696 752.5H700L701 753.5L704 754.5L704.5 755V757L704 757.5H700L699 758.5H693L692 757.5H687L686 758.5H682L681.5 758L685.5 755L683 752.5H679L675.5 749V747L675 746.5H670L669 745.5H667L662 742.5H657L656 741.5H653L652.5 741V740L653.5 739L653 738.5H647L644 741.5H641L638 744.5H634L633.5 744L635 742.5H636L639 738.5H640L643 736.5H645L646 735.5H650L650.5 735ZM134.5 742L135 741.5H137L137.5 743L137 743.5H135L134.5 742ZM144.5 746L146 745.5L148.5 748L148 748.5H146L144.5 747V746ZM154.5 751L155 750.5H157L159.5 752L158 753.5H157L154.5 751ZM160.5 756L161 755.5L162 756.5L165 757.5L167.5 761L166 762.5H165L162 764.5L160.5 764V762L159.5 761V759L160.5 758V756ZM1933.5 757L1934 756.5H1937L1939.5 759V760L1936.5 763L1935.5 766L1933 768.5H1932L1929 770.5L1928 769.5L1925 768.5L1923.5 767V762L1927 758.5H1929L1930 757.5H1933L1933.5 757ZM711.5 759L712 758.5H718L719 759.5H721L722 758.5H728L729 759.5H731L732 760.5H733L735 762.5H738L738.5 763L737.5 764L738 764.5H741L743.5 767V768L742 769.5H740L739 768.5H733L731 770.5H730L728 768.5L724.5 772V773L723 774.5L720 770.5H708L707 771.5L703.5 769L704 767.5H709L710 768.5H715L717.5 767L714.5 764V762L713 760.5H711L710.5 760L711.5 759ZM677.5 769L678 768.5H687L688 769.5H689L691.5 772L691 772.5H687L686 773.5H683L682 772.5L679 771.5L677.5 770V769ZM751.5 769L752 768.5H761L762.5 770L761 771.5H752L751.5 771V769ZM2004.5 769L2005 768.5H2010L2011 769.5H2013L2014 768.5L2015.5 770L2014.5 771V774L2015.5 775V777L2016.5 778V779L2015.5 780V782L2014.5 783V784L2010.5 786V789L2009.5 790V793L2010.5 794V796L2012 797.5H2019L2020 798.5H2021L2022 799.5L2025 800.5L2025.5 801V805L2027.5 806V808L2027 808.5H2025L2023 806.5H2022L2019 802.5L2018.5 804L2017 804.5L2013 800.5H2012L2011 801.5H2006L2003.5 800V799L2004.5 798L2005.5 795L2004 794.5L2003 796.5L2002.5 795L1999.5 792V787L1998.5 786V784L1999 783.5L2000 784.5L2001.5 784V778L2002.5 777V773L2003.5 772V770L2004.5 769ZM2002.5 804L2003 803.5H2008L2009.5 805V808L2008.5 809V811L2008 811.5L2004.5 808V807L2002.5 804ZM2028.5 810L2029 809.5H2034L2036.5 812V815L2037.5 816V819L2037 819.5L2036 818.5H2034L2033.5 819V822L2034.5 823V824L2033 825.5L2031.5 825V821L2030 820.5L2028.5 819V817L2029 816.5H2032L2032.5 816L2031.5 813L2028.5 810ZM2012.5 815L2014 814.5L2015 815.5H2020L2020.5 816V818L2016 822.5H2015L2014 823.5L2012.5 823V819L2013.5 818L2012.5 815ZM1995.5 819L1996 818.5L1996.5 819V820L1997.5 821V823L1996 824.5H1995L1992.5 827V828L1987 833.5H1986L1984 835.5H1983L1982 836.5L1981.5 836L1992.5 825V824L1995.5 819ZM2025.5 820L2026 819.5L2026.5 820V824L2023.5 827L2022.5 830L2020 832.5H2019L2015.5 829V828L2018.5 825V823L2020 820.5H2022L2023 823.5L2023.5 822L2025.5 820ZM790.5 821L791 820.5H793L793.5 821V825L791 826.5H787L786.5 826L788.5 824V822L790.5 821ZM1733.5 829L1735 828.5L1740.5 834V835L1741.5 836V837L1744.5 842V848L1743.5 849V850L1741 852.5H1739L1738 853.5H1735L1733.5 851V850L1732.5 849V848L1731.5 847V840L1730.5 839L1731.5 838V835L1732.5 834V832L1733.5 831V829ZM2035.5 829L2036 828.5L2037 829.5L2040 830.5L2041.5 832V836L2042.5 837V844L2043.5 845V846L2042.5 847V848L2041 850.5L2039.5 849V847L2038 845.5L2035.5 848V849L2036.5 850V852L2037.5 853L2035 856.5L2034 855.5H2033L2032 854.5L2029 853.5L2027.5 852V851L2026.5 850V846L2027.5 845V844L2026 843.5L2024 841.5L2022 843.5H2019L2018 844.5H2017L2014 847.5L2012.5 846V845L2013.5 844L2014.5 841L2017 838.5H2019L2021 836.5H2022L2023 835.5L2024.5 837V838L2026 838.5L2027 837.5H2029L2032 833.5H2036L2036.5 833L2035.5 832V829ZM1977.5 848L1978 847.5H1981L1983.5 850V852L1986 854.5H1987L1990 856.5H1992L1994.5 858L1993 860.5H1990L1989.5 861V862L1990.5 863L1989 864.5L1986 865.5L1984.5 867V868L1982.5 870V871L1981.5 872L1983.5 874V875L1986.5 878L1985.5 881L1991 886.5L1992.5 887L1992 887.5H1989L1988 888.5H1985L1984.5 889V890L1982.5 893V899L1976.5 904V912L1975.5 913V916L1974.5 917V919L1974 919.5L1973 918.5H1971L1970 919.5H1968L1967 920.5H1965L1964.5 919L1962 916.5H1958L1955 914.5H1953L1952 915.5H1950L1949 916.5H1947L1944 913.5H1935L1934.5 913V910L1933.5 909V905L1931 902.5L1929.5 902V901L1926.5 896V892L1925.5 891L1926.5 890V885L1931 880.5H1932L1935 882.5H1937L1938 881.5H1940L1941.5 880V876L1944 874.5H1947L1948 873.5H1952L1958.5 867V866L1964 860.5H1965L1967 858.5H1968L1976.5 850V849L1977.5 848ZM1835.5 858L1836 857.5H1844L1845 858.5H1849L1861 870.5H1862L1869.5 878L1870 879.5H1877L1879 881.5H1880L1884.5 886V887L1886.5 889L1887 890.5L1890 891.5L1891.5 893V894L1890.5 895L1889.5 898L1892 900.5H1895L1895.5 901V903L1896.5 904V906L1898.5 908L1899 909.5H1903L1906.5 913V918L1905.5 919V932L1905 932.5H1897L1890 925.5L1887 924.5L1885 922.5H1884L1882.5 921V920L1879.5 917V916L1874.5 911V910L1872.5 908V907L1871.5 906V905L1869.5 903V902L1868.5 901L1867.5 898L1860.5 891V889L1859.5 888V886L1858.5 885L1857.5 882L1856 880.5H1855L1852 877.5H1851L1850.5 876L1848.5 874V873L1844 868.5H1843L1836.5 862V861L1835.5 860V858ZM2051.5 880L2052 879.5L2052.5 880V882L2053 882.5L2056 883.5L2057.5 885V891L2057 891.5H2054L2053.5 892V894L2052.5 895L2054.5 898L2054 899.5L2051.5 897V896L2050.5 895V892L2049.5 891V888L2048.5 887L2049.5 886V883L2051.5 880ZM2032.5 883L2033 882.5L2034.5 884L2032.5 886V887L2028 891.5H2020L2019 890.5H2007L2006 891.5H2002L2000.5 893V896L1999.5 897L2005 902.5H2007L2010 899.5H2015L2016 898.5H2020L2021 897.5L2021.5 898V900L2021 900.5H2020L2019 899.5L2016.5 902L2016 903.5H2015L2014 904.5H2013L2010.5 906V908L2013.5 911V912L2015.5 914V916L2014.5 917L2016.5 919V920L2020.5 924V929L2017 931.5L2014.5 929L2015.5 928L2016.5 925L2016 924.5H2014L2013 925.5H2011L2009.5 924V923L2010.5 922L2007 918.5L2005.5 918V913L2006.5 912L2005 911.5L2001.5 914V918L2002.5 919V930L2000 931.5H1998L1995.5 929V928L1996.5 927V925L1997.5 924V922L1996.5 921V918L1992.5 915L1991.5 912L1992.5 911V910L1994.5 908V903L1995.5 902V900L1996.5 899V897L1997.5 896V894L1998.5 893L1999.5 890L2002 887.5H2003L2005 885.5H2008L2009 886.5H2011L2012 887.5H2027L2029 885.5H2030L2032.5 883ZM2080.5 897L2081 896.5H2085L2086 897.5H2089L2090 898.5H2092L2093.5 900V902L2094.5 903V907L2095.5 908V912L2098 913.5H2099L2101 915.5H2103L2105.5 913V912L2109 908.5H2110L2115 905.5H2124L2125 906.5H2126L2131 909.5H2133L2134 910.5H2139L2140 911.5H2142L2145 913.5H2147L2150 915.5H2152L2153 916.5H2155L2156 917.5H2159L2160 918.5H2162L2163 919.5H2164L2167 922.5H2168L2171.5 926L2173 930.5H2175L2178 932.5H2180L2181 933.5H2183L2184.5 935V936L2185.5 937L2185 937.5H2184L2183 938.5H2180L2179.5 939V940L2180.5 941V943L2182 943.5L2185 946.5H2186L2187.5 948L2188.5 951L2190.5 953L2191 954.5H2194L2195 957.5H2197L2198 958.5H2199L2199.5 959L2198.5 960L2201 961.5H2203L2204.5 963V964L2204 964.5H2199L2196 962.5H2190L2189 961.5H2186L2185 960.5H2184L2175.5 952L2174.5 949L2173 947.5H2172L2171 946.5H2169L2168 945.5H2166L2165 944.5H2164L2163 945.5H2161L2160 946.5H2159L2158 947.5L2155 948.5L2154.5 949L2155.5 950V954L2155 954.5H2153L2152 955.5H2147L2146 954.5H2140L2138 952.5H2137L2133 948.5H2129L2128 947.5H2127L2126 949.5H2118L2117.5 948L2119.5 946V945L2121 943.5H2123L2123.5 943V939L2122.5 938V935L2121.5 934V933L2119.5 931V930L2117 928.5H2116L2115 927.5H2114L2113 926.5H2111L2106 923.5H2101L2091 917.5L2088 920.5H2086L2084.5 919V916L2083 914.5H2082L2080.5 913V912L2081 911.5H2083L2084 910.5H2090L2091.5 909L2091 908.5H2081L2080.5 907L2078 904.5H2077L2076 903.5H2073L2070.5 901L2071 899.5H2074L2075 898.5H2079L2080.5 897ZM2205.5 911L2207 910.5L2208 911.5H2209L2211 913.5L2214 914.5L2219.5 920V921L2220.5 922V924L2219 924.5L2217.5 923L2216.5 920L2213 916.5H2212L2210 914.5H2209L2208 913.5L2205 912.5L2204.5 912L2205.5 911ZM2053.5 913L2054 912.5H2064L2065 913.5H2068L2070.5 916V917L2071.5 918L2070 918.5L2067 916.5H2053L2052.5 915L2053.5 914V913ZM2039.5 915L2040 914.5H2046L2047.5 916V917L2046 918.5H2042L2039.5 915ZM2209.5 922L2210 921.5H2214L2215.5 923V926L2214.5 927V928L2212 930.5H2210L2207 933.5H2206L2205 934.5H2203L2202 935.5H2196L2195 934.5H2193L2192 933.5H2191L2188.5 932L2189 930.5H2198L2199.5 929L2200 927.5L2200.5 929L2202 930.5H2204L2207 927.5H2208L2210.5 925V923L2209.5 922ZM2229.5 928L2230 927.5L2234.5 932V933L2238 936.5L2239.5 937V938L2238 939.5H2236L2233.5 937V936L2231.5 934V933L2230.5 932V929L2229.5 928ZM2095.5 931L2096 930.5L2097.5 931V936L2095 938.5L2093.5 937V934L2095.5 932V931ZM1905.5 934L1906 933.5H1915L1918 935.5H1920L1921 936.5H1922L1925 939.5H1936L1938 937.5H1942L1943 938.5H1946L1947 939.5H1949L1951.5 942V943L1953 944.5H1957L1958 945.5H1963L1964 946.5H1965L1966 947.5L1969 948.5L1969.5 950L1969 950.5H1967L1966 951.5H1964L1963 952.5L1962 951.5H1961L1960 950.5H1958L1957 949.5H1943L1942 948.5H1938L1937 947.5H1935L1934 946.5H1932L1931 945.5H1927L1926 944.5H1924L1923 945.5H1920L1919 944.5H1915L1914 943.5H1911L1910 942.5H1909L1908 939.5H1903L1902.5 939L1903.5 938V937L1905.5 935V934ZM2243.5 939L2244 938.5L2245 939.5H2246L2248.5 942L2247 942.5L2243.5 939ZM2254.5 943L2256 942.5L2258 944.5H2259L2260 945.5L2263 946.5L2265.5 949V950L2265 950.5L2264 949.5L2261 948.5L2259 946.5H2258L2254.5 943ZM1984.5 949L1985 948.5H1987L1988 949.5H1992L1993.5 951L1992 952.5H1988L1987 953.5H1979L1978.5 953L1980 950.5H1983L1984.5 949ZM2003.5 949L2004 948.5L2007 950.5H2013L2016 948.5H2018L2018.5 949V951L2018 951.5H2016L2015 952.5H2010L2009 953.5H2005L2004 952.5H2000L1999.5 952V950L2000 949.5H2003L2003.5 949ZM2042.5 950L2043 949.5H2048L2048.5 950L2047 950.5L2045 952.5H2043L2040 954.5H2038L2037 955.5H2035L2029 961.5H2028L2027 962.5H2023L2022.5 962L2023.5 961V959L2027 955.5H2028L2029 954.5L2032 953.5L2034 951.5H2035L2036 950.5H2042L2042.5 950ZM2270.5 950L2272 949.5L2273.5 951V952L2274.5 953L2275.5 956L2277.5 958L2277 958.5H2276L2272.5 955V954L2271.5 953L2270.5 950ZM2264.5 956L2266 955.5L2267 956.5H2269L2271.5 959L2271 959.5H2265L2263.5 958L2264.5 957V956ZM1995.5 957L1996 956.5H2000L2002 958.5H2003L2004.5 960V962L2004 962.5H2001L1999 960.5H1998L1997 959.5L1994 958.5L1993.5 958L1995.5 957ZM2275.5 963L2277 962.5L2278 963.5H2280L2281.5 965V966L2281 966.5H2278L2275.5 963ZM2148.5 966L2149 965.5L2150.5 966V967L2151.5 968V972L2153.5 974V976L2155.5 978V979L2156.5 980V986L2157.5 987V989L2158.5 990V991L2160 991.5L2162 989.5H2164L2164.5 991L2168.5 995V1001L2169.5 1002V1005L2173.5 1011V1019L2174.5 1020V1021L2177 1023.5H2178L2179 1024.5H2180L2181 1025.5L2184 1026.5L2187 1029.5H2188L2190 1031.5L2191.5 1032V1035L2194.5 1038V1039L2195.5 1040V1042L2196.5 1043V1045L2198 1046.5L2199 1045.5H2201L2202 1047.5H2204L2204.5 1048V1050L2205.5 1051V1055L2207 1055.5L2217.5 1066V1067L2219.5 1070V1072L2220.5 1073V1084L2223.5 1089V1094L2222.5 1095V1098L2221.5 1099V1102L2220.5 1103V1111L2219.5 1112V1115L2218.5 1116V1118L2216.5 1121V1123L2215 1124.5H2214L2210.5 1128V1129L2209.5 1130V1132L2208.5 1133V1134L2205.5 1139V1142L2204.5 1143V1144L2201.5 1149V1151L2200.5 1152V1155L2199.5 1156V1163L2198 1164.5H2197L2196 1165.5H2192L2191 1166.5H2187L2185 1168.5L2182 1169.5L2175 1176.5L2174 1175.5H2173L2171 1173.5H2170L2169 1172.5H2167L2165.5 1171V1170L2166.5 1169L2166 1167.5L2163 1168.5L2157 1174.5H2156L2155 1173.5H2153L2150 1171.5H2147L2146 1170.5H2143L2142 1169.5H2140L2139 1168.5H2138L2133.5 1164V1163L2132.5 1162V1159L2131.5 1158V1155L2130.5 1154V1153L2126 1148.5H2121L2120.5 1148V1147L2122.5 1145V1142L2121.5 1141V1139L2121 1138.5L2119.5 1140V1141L2118 1143.5H2117L2116 1144.5H2113L2112.5 1144L2115.5 1141V1138L2116.5 1137V1135L2118.5 1133V1127L2118 1126.5L2116.5 1128V1129L2111 1134.5H2110L2108.5 1136V1137L2107.5 1138L2106.5 1141L2105 1141.5L2101.5 1139V1135L2100.5 1134V1133L2097.5 1130V1129L2095 1126.5L2093.5 1126V1125L2094.5 1124L2093 1122.5H2092L2091 1121.5H2090L2085 1118.5H2081L2076 1115.5H2063L2062 1116.5H2060L2059 1117.5H2057L2056 1118.5H2054L2053 1119.5H2051L2050 1120.5H2048L2047 1121.5H2046L2045 1120.5H2040L2038 1122.5H2037L2032 1125.5H2030L2029 1126.5H2028L2026.5 1129V1131L2024 1133.5H2021L2020 1134.5H2011L2010 1133.5H2005L2004 1134.5H1999L1995 1138.5H1993L1992 1139.5H1991L1987 1143.5H1977L1974 1140.5H1973L1971 1138.5L1968 1137.5L1966.5 1136V1132L1967 1131.5H1969L1970.5 1130V1125L1971.5 1124V1117L1970.5 1116V1114L1969.5 1113V1112L1967.5 1109V1107L1966.5 1106V1099L1963.5 1094V1092L1960.5 1089V1084L1959.5 1083V1082L1957.5 1080V1079L1955.5 1076L1956 1075.5L1957 1076.5L1957.5 1076V1074L1956.5 1073L1957 1071.5H1958L1961 1074.5L1961.5 1074V1072L1960.5 1071L1959.5 1068L1957.5 1066V1064L1955.5 1061V1059L1956.5 1058V1057L1957.5 1056V1054L1958.5 1053V1049L1957.5 1048L1958.5 1047V1046L1960 1043.5L1960.5 1044V1046L1962 1046.5L1964 1042.5H1965L1966 1041.5L1969 1040.5L1972 1037.5H1973L1978 1034.5H1984L1987 1032.5H1990L1991 1031.5H1992L1994 1029.5H2000L2001 1028.5H2003L2004 1027.5L2007 1026.5L2009.5 1024L2010.5 1021L2014.5 1017V1012L2015.5 1011L2016.5 1008L2019 1005.5H2020L2021.5 1008V1009L2023 1010.5L2024 1009.5H2025L2025.5 1009L2023.5 1007V1005L2024.5 1004V1003L2025 1002.5L2026 1003.5H2028L2028.5 1003V999L2033.5 994V993L2036 991.5H2037L2038 989.5H2039L2040 990.5L2041 988.5L2047 986.5L2049 988.5H2050L2056 994.5H2063L2063.5 993L2062.5 992V990L2063.5 989V988L2068.5 983L2067.5 982L2068.5 981V980L2072 976.5H2073L2074 975.5H2076L2077 976.5H2079L2080 975.5H2083L2083.5 975V972L2082 970.5H2081L2079.5 969L2080 968.5H2083L2084 969.5H2086L2089 972.5H2090L2091 973.5H2093L2094 974.5H2096L2097 973.5L2100 975.5H2103L2104 974.5H2108L2109 973.5H2110L2112.5 976V977L2111.5 978L2110.5 981L2106.5 984V987L2105.5 988V989L2102.5 992V994L2105 996.5H2106L2108 998.5H2109L2110 999.5H2111L2112 1000.5L2115 1001.5L2119 1005.5H2120L2122 1007.5H2124L2125 1008.5H2126L2127.5 1010L2128 1011.5H2129L2130 1012.5H2132L2133 1013.5H2135L2136 1012.5H2137L2139.5 1010V1008L2141.5 1005V1002L2142.5 1001V999L2143.5 998V996L2144.5 995L2143.5 994V981L2145.5 979L2144.5 978V976L2145.5 975V973L2146.5 972V970L2147.5 969V967L2148.5 966ZM1526.5 976L1528 975.5L1530.5 978V979L1532.5 982V984L1533.5 985V990L1534.5 991V994L1535.5 995V1000L1534 1001.5L1533.5 1000L1532 998.5L1530.5 1000L1531.5 1001V1008L1529.5 1009V1015L1528.5 1016V1018L1527.5 1019V1022L1526.5 1023V1025L1525.5 1026V1028L1524.5 1029V1030L1523.5 1031V1033L1522.5 1034V1037L1521.5 1038V1040L1520.5 1041V1043L1519.5 1044V1047L1518.5 1048V1051L1517.5 1052V1055L1516.5 1056V1058L1515.5 1059V1061L1514.5 1062V1064L1513 1065.5H1512L1511 1066.5H1509L1508 1067.5H1507L1502 1070.5L1501 1069.5H1500L1499 1068.5H1498L1497 1067.5L1494 1066.5L1492.5 1065V1064L1491.5 1063V1056L1490.5 1055V1054L1489.5 1053V1051L1488.5 1050V1040L1490 1038.5H1492L1492.5 1038V1035L1493.5 1034V1033L1495.5 1031V1024L1494.5 1023V1021L1493.5 1020V1015L1492.5 1014V1011L1494.5 1009V1008L1495.5 1007V1004L1496 1003.5H1498L1499 1002.5H1501L1504 1000.5H1508L1514 994.5H1515L1518.5 991V990L1519.5 989V986L1520 985.5L1521 986.5L1524.5 983V982L1525.5 981V977L1526.5 976ZM2310.5 993L2311 992.5L2313.5 994V996L2314.5 997V999L2314 999.5H2312L2310.5 998V993ZM2314.5 1002L2315 1001.5L2318.5 1005L2318 1005.5H2316L2314.5 1003V1002ZM-0.5 1003L0 1002.5L0.5 1003V1005L0 1005.5L-0.5 1005V1003ZM2398.5 1003L2399 1002.5L2399.5 1003V1005L2398 1006.5H2396L2393 1008.5H2391L2390.5 1008V1006L2391 1005.5H2392L2393 1004.5H2396L2398.5 1003ZM2383.5 1012L2384 1011.5H2386L2387 1012.5L2388 1011.5H2389L2390.5 1013V1016L2388 1017.5H2384L2383 1016.5H2382L2381.5 1016V1014L2383.5 1012ZM2293.5 1031L2294 1030.5H2296L2297 1031.5H2298L2301 1034.5H2302L2308 1040.5H2309L2313.5 1045L2312 1046.5H2310L2309 1045.5H2308L2306 1043.5H2305L2303 1041.5H2302L2295.5 1035V1034L2293.5 1032V1031ZM2351.5 1139L2353 1138.5L2354.5 1140V1141L2357 1143.5H2358L2359 1144.5H2361L2362.5 1146V1149L2363.5 1150V1153L2365.5 1155V1156L2366.5 1157V1158L2368 1160.5L2368.5 1160V1156L2369 1155.5L2371.5 1158V1160L2372.5 1161V1164L2373 1164.5H2374L2379 1167.5H2383L2386 1164.5H2388L2389.5 1166V1168L2388.5 1169V1173L2387.5 1174L2386.5 1177L2386 1177.5H2381L2379.5 1179V1185L2378.5 1186L2377.5 1189L2375.5 1191V1192L2374.5 1193L2373.5 1196L2372 1197.5H2371L2369 1199.5H2368L2364.5 1196V1195L2367.5 1190V1188L2366.5 1187L2365.5 1184L2363 1182.5H2362L2361 1181.5H2360L2358.5 1180V1178L2360 1176.5H2361L2363.5 1174V1172L2364.5 1171V1163L2361.5 1158V1155L2356.5 1150V1149L2352.5 1144V1143L2350.5 1140L2351.5 1139ZM2350.5 1190L2351 1189.5L2352.5 1191V1192L2353.5 1193V1195L2355 1196.5L2357 1194.5H2358L2359 1193.5L2361.5 1197V1201L2359.5 1203V1204L2357.5 1206V1207L2355.5 1209V1210L2352.5 1213V1214L2351.5 1215V1216L2353.5 1219L2353 1219.5H2348L2346 1221.5H2345L2342.5 1223V1225L2341.5 1226V1228L2340.5 1229V1231L2338.5 1234V1236L2337.5 1237V1238L2332 1243.5H2331L2329 1245.5H2322L2321 1244.5H2320L2318 1242.5H2313L2312 1241.5H2311L2309.5 1239V1238L2310.5 1237V1236L2311.5 1235L2312.5 1232L2318.5 1226V1225L2322 1221.5H2324L2325 1220.5H2326L2328 1218.5H2329L2333 1214.5H2334L2339.5 1209V1208L2341.5 1206V1204L2342.5 1203V1202L2346.5 1198V1194L2350.5 1190ZM2164.5 1192L2165 1191.5H2168L2169 1192.5H2171L2174 1194.5H2178L2179 1193.5H2181L2182 1192.5H2188L2188.5 1193V1204L2186.5 1206V1210L2185 1212.5L2184 1211.5H2183L2182.5 1213L2179.5 1216L2179 1217.5H2178L2177 1216.5H2173L2172.5 1216V1215L2171.5 1214V1213L2168.5 1208V1203L2167.5 1202V1201L2164.5 1196V1192ZM1658.5 1267L1660 1266.5L1665 1269.5H1669L1669.5 1270V1274L1668.5 1275V1276L1668 1276.5H1662L1661 1277.5H1659L1657.5 1276V1271L1658.5 1270V1267ZM808.5 1292L810 1291.5L814.5 1296L813.5 1299L812 1300.5H810L809 1301.5H807L806 1302.5H803L802.5 1301L801 1299.5H800L796 1303.5H795L792.5 1301V1299L797 1294.5H798L799 1293.5H802L805 1295.5L808.5 1292Z" fill="#F2EFE9"/>
</g>
<defs>
<clipPath id="clip0_61787_3748">
<rect width="2400" height="1347" fill="white"/>
</clipPath>
</defs>
</svg>
